<?xml version="1.0" encoding="UTF-8" standalone="no"?>
<!DOCTYPE svg PUBLIC "-//W3C//DTD SVG 1.1//EN" "http://www.w3.org/Graphics/SVG/1.1/DTD/svg11.dtd">
<svg width="100%" height="100%" viewBox="0 0 2500 2500" version="1.1" xmlns="http://www.w3.org/2000/svg" xmlns:xlink="http://www.w3.org/1999/xlink" xml:space="preserve" xmlns:serif="http://www.serif.com/" style="fill-rule:evenodd;clip-rule:evenodd;stroke-linejoin:round;stroke-miterlimit:2;">
    <g transform="matrix(1,0,0,1,-65645,-6726)">
        <g id="BRONZE">
        </g>
        <g id="fronte">
        </g>
        <g id="Artboard73" transform="matrix(1.70184,0,0,2.85714,-46072.2,-12491.1)">
            <rect x="65645" y="6726" width="1469" height="875" style="fill:none;"/>
            <clipPath id="_clip1">
                <rect x="65645" y="6726" width="1469" height="875"/>
            </clipPath>
            <g clip-path="url(#_clip1)">
                <g transform="matrix(0.455081,0,0,0.324194,35913.7,4595.07)">
                    <rect x="65332" y="6573" width="3228" height="2699" style="fill:white;"/>
                </g>
                <g transform="matrix(1.21647,0,0,0.724581,66387.2,7023.31)">
                    <path d="M0,439.812C0,439.812 -0.244,439.671 -0.706,439.388C-0.796,439.337 -0.886,439.273 -0.976,439.234L-1.233,439.067C-5.406,436.525 -9.437,433.931 -13.315,431.273C-13.752,430.965 -14.201,430.67 -14.638,430.362C-15.125,430.028 -15.613,429.681 -16.088,429.347C-16.435,429.103 -16.769,428.859 -17.103,428.615C-17.783,428.153 -18.464,427.665 -19.119,427.177C-20.454,426.214 -21.777,425.239 -23.086,424.25C-23.728,423.775 -24.357,423.287 -24.999,422.799C-25.475,422.439 -25.95,422.067 -26.425,421.695C-27.08,421.194 -27.722,420.68 -28.364,420.179C-28.518,420.051 -28.672,419.923 -28.826,419.794C-29.455,419.306 -30.071,418.806 -30.688,418.292C-30.932,418.1 -31.175,417.907 -31.419,417.701C-31.792,417.406 -32.164,417.098 -32.524,416.777C-32.601,416.726 -32.678,416.661 -32.755,416.597L-32.986,416.405C-33.345,416.122 -33.692,415.827 -34.039,415.519C-34.334,415.287 -34.629,415.031 -34.925,414.787C-35.027,414.684 -35.143,414.594 -35.246,414.491C-35.58,414.209 -35.927,413.914 -36.26,413.618C-36.311,413.58 -36.363,413.541 -36.401,413.49C-36.697,413.246 -36.979,413.002 -37.274,412.745C-37.891,412.219 -38.495,411.679 -39.098,411.127C-39.123,411.114 -39.137,411.089 -39.162,411.063C-39.188,411.05 -39.213,411.037 -39.226,410.999C-39.663,410.639 -40.086,410.254 -40.51,409.856C-40.921,409.497 -41.332,409.111 -41.73,408.752C-42.552,407.994 -43.348,407.25 -44.144,406.492C-44.747,405.927 -45.351,405.362 -45.942,404.771C-46.288,404.45 -46.622,404.116 -46.969,403.795L-47.97,402.794C-48.6,402.19 -49.216,401.561 -49.832,400.945C-49.961,400.817 -50.076,400.701 -50.192,400.573C-50.769,399.995 -51.347,399.391 -51.912,398.814C-52.131,398.595 -52.336,398.377 -52.542,398.159C-52.811,397.876 -53.094,397.581 -53.363,397.298L-53.826,396.798C-54.095,396.515 -54.365,396.233 -54.621,395.95C-54.686,395.899 -54.737,395.835 -54.789,395.783C-55.097,395.449 -55.405,395.116 -55.713,394.769C-56.342,394.101 -56.958,393.421 -57.562,392.74C-57.934,392.342 -58.294,391.931 -58.641,391.533C-58.897,391.264 -59.128,390.981 -59.372,390.711C-59.616,390.429 -59.873,390.134 -60.104,389.851C-60.22,389.736 -60.31,389.62 -60.412,389.517C-60.81,389.055 -61.209,388.593 -61.594,388.131C-61.658,388.066 -61.709,387.989 -61.773,387.925C-62.107,387.527 -62.441,387.142 -62.762,386.757C-62.891,386.603 -63.019,386.461 -63.135,386.307C-63.25,386.166 -63.378,386.025 -63.494,385.884C-63.61,385.742 -63.725,385.601 -63.828,385.46C-63.931,385.344 -64.033,385.229 -64.123,385.113C-64.226,384.985 -64.329,384.869 -64.419,384.754C-64.547,384.612 -64.65,384.458 -64.765,384.317C-65.15,383.868 -65.523,383.406 -65.882,382.943C-66.024,382.776 -66.152,382.622 -66.28,382.455C-66.422,382.288 -66.55,382.109 -66.691,381.942C-66.974,381.582 -67.256,381.223 -67.539,380.863C-67.603,380.773 -67.667,380.696 -67.718,380.619C-67.783,380.542 -67.847,380.465 -67.911,380.375C-68.065,380.183 -68.219,379.99 -68.373,379.797C-68.463,379.669 -68.566,379.541 -68.656,379.412C-68.72,379.348 -68.758,379.284 -68.81,379.22C-69.041,378.912 -69.285,378.603 -69.516,378.295C-69.696,378.077 -69.85,377.871 -70.004,377.653C-70.094,377.525 -70.197,377.396 -70.286,377.268C-70.518,376.985 -70.736,376.69 -70.941,376.408C-71.044,376.266 -71.147,376.112 -71.263,375.971C-71.416,375.778 -71.558,375.586 -71.686,375.393C-71.737,375.329 -71.789,375.278 -71.827,375.213C-71.879,375.149 -71.904,375.098 -71.943,375.047C-72.2,374.713 -72.444,374.366 -72.7,374.019C-73.189,373.352 -73.676,372.671 -74.138,371.99C-74.305,371.785 -74.447,371.567 -74.601,371.349C-74.652,371.272 -74.704,371.195 -74.755,371.118C-75.089,370.642 -75.436,370.154 -75.769,369.679C-75.795,369.641 -75.82,369.59 -75.846,369.564C-75.923,369.448 -76,369.346 -76.078,369.23C-76.206,369.037 -76.334,368.845 -76.45,368.665C-76.668,368.357 -76.873,368.062 -77.066,367.766C-77.272,367.484 -77.464,367.188 -77.657,366.906C-77.952,366.469 -78.235,366.02 -78.53,365.583C-78.581,365.493 -78.646,365.404 -78.697,365.314C-78.812,365.147 -78.928,364.98 -79.031,364.813C-79.313,364.389 -79.595,363.953 -79.865,363.516C-80.045,363.259 -80.212,362.99 -80.379,362.72C-80.43,362.643 -80.469,362.579 -80.52,362.502C-80.777,362.091 -81.047,361.68 -81.303,361.269C-81.432,361.051 -81.573,360.833 -81.688,360.627C-81.958,360.203 -82.215,359.792 -82.472,359.382C-82.51,359.318 -82.562,359.24 -82.587,359.176C-82.729,358.958 -82.857,358.74 -82.985,358.534L-82.985,358.521C-83.281,358.034 -83.576,357.558 -83.858,357.071C-84.192,356.531 -84.5,356.005 -84.809,355.465C-85.001,355.157 -85.168,354.849 -85.348,354.554C-85.399,354.477 -85.438,354.387 -85.489,354.31C-85.772,353.822 -86.054,353.334 -86.324,352.846C-86.35,352.808 -86.388,352.756 -86.401,352.718C-86.696,352.191 -86.992,351.678 -87.274,351.151C-87.788,350.252 -88.288,349.341 -88.763,348.442C-88.853,348.288 -88.93,348.134 -89.02,347.98C-89.303,347.453 -89.572,346.94 -89.855,346.413C-89.945,346.233 -90.035,346.054 -90.137,345.874C-90.42,345.335 -90.702,344.795 -90.972,344.269C-90.998,344.218 -91.023,344.166 -91.049,344.115C-91.113,343.999 -91.177,343.884 -91.229,343.755C-91.434,343.37 -91.627,342.985 -91.819,342.6C-91.935,342.369 -92.051,342.137 -92.166,341.906C-92.705,340.853 -93.232,339.775 -93.733,338.722C-93.925,338.337 -94.105,337.939 -94.298,337.541C-94.426,337.297 -94.529,337.04 -94.644,336.809C-94.862,336.347 -95.068,335.897 -95.273,335.448C-97.572,330.517 -99.639,325.587 -101.513,320.682C-101.719,320.168 -101.912,319.642 -102.117,319.128C-102.233,318.807 -102.361,318.486 -102.477,318.165C-102.862,317.125 -103.247,316.085 -103.607,315.045C-103.953,314.082 -104.287,313.145 -104.608,312.194C-104.852,311.488 -105.096,310.782 -105.327,310.076C-127.001,245.015 -116.434,187.568 -116.292,186.785C-116.318,186.836 -116.344,186.888 -116.382,186.939C-116.46,187.068 -116.562,187.235 -116.691,187.427C-116.729,187.53 -116.793,187.633 -116.871,187.735C-116.935,187.864 -117.024,187.992 -117.114,188.133C-117.23,188.352 -117.371,188.583 -117.525,188.827C-117.615,188.981 -117.705,189.148 -117.808,189.302C-117.859,189.404 -117.91,189.507 -117.975,189.597C-118.193,189.982 -118.437,190.38 -118.694,190.817C-118.694,190.817 -118.694,190.83 -118.707,190.83C-118.925,191.202 -119.156,191.6 -119.413,192.024C-119.49,192.165 -119.567,192.306 -119.657,192.461C-119.76,192.653 -119.875,192.859 -120.003,193.064C-120.312,193.616 -120.645,194.194 -120.992,194.797C-121.172,195.106 -121.339,195.427 -121.531,195.748C-121.531,195.76 -121.531,195.773 -121.544,195.786C-121.904,196.428 -122.289,197.096 -122.674,197.802C-123.059,198.495 -123.47,199.227 -123.881,199.985C-124.164,200.498 -124.446,201.012 -124.729,201.538C-125.165,202.347 -125.602,203.182 -126.064,204.029C-126.988,205.75 -127.951,207.573 -128.94,209.512C-129.197,210 -129.441,210.488 -129.697,210.989C-130.468,212.478 -131.251,214.032 -132.06,215.637C-133.665,218.86 -135.334,222.314 -137.055,225.973C-137.055,225.999 -137.055,225.999 -137.068,226.012C-137.479,226.91 -137.902,227.809 -138.326,228.721C-138.557,229.234 -138.801,229.774 -139.058,230.3C-139.674,231.648 -140.291,233.022 -140.92,234.422C-141.138,234.91 -141.356,235.411 -141.575,235.911C-142.666,238.377 -143.758,240.893 -144.862,243.5L-144.862,243.525C-144.99,243.795 -145.106,244.091 -145.221,244.373C-145.324,244.604 -145.427,244.848 -145.529,245.092C-145.632,245.349 -145.748,245.606 -145.85,245.862C-145.966,246.132 -146.069,246.402 -146.184,246.671C-146.197,246.697 -146.21,246.748 -146.236,246.774C-146.492,247.429 -146.762,248.084 -147.032,248.738C-147.366,249.56 -147.699,250.382 -148.033,251.217C-148.457,252.269 -148.894,253.348 -149.317,254.427C-149.523,254.966 -149.741,255.505 -149.946,256.045C-150.473,257.406 -150.999,258.779 -151.526,260.166C-151.641,260.462 -151.757,260.77 -151.872,261.065C-152.181,261.9 -152.502,262.734 -152.81,263.582C-153.131,264.429 -153.439,265.29 -153.747,266.15C-154.967,269.514 -156.174,272.955 -157.342,276.46C-159.564,283.06 -161.669,289.904 -163.634,296.94C-164.019,298.34 -164.404,299.752 -164.79,301.165L-164.79,301.19C-165.162,302.603 -165.534,304.028 -165.907,305.466L-165.907,305.479C-166.638,308.342 -167.332,311.244 -168.012,314.159L-168.012,314.185C-168.667,317.112 -169.309,320.052 -169.913,323.031L-169.913,323.044C-170.067,323.789 -170.208,324.534 -170.362,325.278C-170.799,327.513 -171.21,329.772 -171.608,332.019L-171.608,332.032C-175.164,352.499 -176.885,373.891 -175.575,395.308C-175.575,395.424 -175.563,395.552 -175.563,395.668C-175.498,396.579 -175.434,397.491 -175.37,398.403C-175.164,401.138 -174.921,403.873 -174.612,406.608C-174.574,407.005 -174.522,407.404 -174.471,407.815C-174.368,408.636 -174.265,409.458 -174.163,410.293C-173.842,412.771 -173.482,415.236 -173.071,417.714C-172.789,419.358 -172.494,421.014 -172.185,422.645C-171.864,424.301 -171.531,425.932 -171.171,427.575C-170.811,429.283 -170.413,430.965 -169.99,432.673C-169.887,433.097 -169.784,433.533 -169.656,433.957C-169.284,435.485 -168.873,437 -168.449,438.515C-167.319,442.573 -166.048,446.592 -164.61,450.585C-163.942,452.485 -163.236,454.373 -162.491,456.26L-162.491,456.273C-161.926,457.685 -161.349,459.085 -160.758,460.498C-160.308,461.55 -159.846,462.603 -159.371,463.656C-158.896,464.709 -158.421,465.749 -157.933,466.802C-157.445,467.829 -156.931,468.882 -156.418,469.922C-155.904,470.962 -155.378,471.989 -154.838,473.029C-159.063,472.143 -163.544,470.962 -168.154,469.434C-172.763,467.906 -177.489,466.006 -182.201,463.669C-191.266,459.162 -200.28,453.012 -208.266,444.614C-236.887,414.543 -255.004,368.408 -259.19,357.058C-259.806,355.388 -260.114,354.477 -260.114,354.477C-260.114,354.477 -273.404,319.025 -285.679,259.319C-285.833,258.51 -286,257.701 -286.167,256.892L-286.18,256.802L-286.18,256.776C-286.026,255.197 -285.859,253.605 -285.666,252.051C-285.628,251.756 -285.602,251.461 -285.564,251.165C-285.409,249.881 -285.255,248.597 -285.088,247.326C-284.973,246.491 -284.857,245.683 -284.755,244.848C-284.678,244.296 -284.601,243.757 -284.511,243.204C-284.036,239.917 -283.509,236.656 -282.931,233.433C-282.854,232.984 -282.777,232.522 -282.687,232.072C-281.866,227.617 -280.941,223.225 -279.94,218.898C-278.258,211.695 -276.319,204.646 -274.136,197.789C-273.969,197.224 -273.789,196.672 -273.609,196.12C-272.595,192.974 -271.517,189.841 -270.399,186.759C-270.207,186.207 -270.001,185.655 -269.783,185.103C-269.591,184.538 -269.385,183.986 -269.18,183.434L-269.167,183.421C-268.756,182.317 -268.319,181.213 -267.896,180.108L-267.896,180.095C-267.459,179.004 -267.023,177.913 -266.586,176.821C-266.137,175.743 -265.7,174.651 -265.238,173.573C-264.788,172.481 -264.339,171.403 -263.876,170.324C-262.888,168.064 -261.874,165.817 -260.833,163.583C-260.487,162.838 -260.14,162.094 -259.781,161.349C-259.075,159.872 -258.368,158.409 -257.649,156.945C-257.277,156.213 -256.904,155.481 -256.545,154.749C-256.186,154.03 -255.813,153.298 -255.441,152.579C-254.439,150.666 -253.425,148.753 -252.397,146.865C-251.614,145.453 -250.844,144.04 -250.048,142.628C-248.854,140.522 -247.634,138.442 -246.388,136.375C-245.977,135.682 -245.567,135.001 -245.156,134.321C-244.745,133.64 -244.321,132.959 -243.898,132.279C-243.474,131.598 -243.05,130.918 -242.626,130.25C-241.779,128.902 -240.919,127.567 -240.033,126.231L-238.723,124.241C-238.286,123.586 -237.837,122.918 -237.388,122.264C-236.219,120.517 -235.025,118.771 -233.792,117.038C-232.585,115.317 -231.353,113.622 -230.107,111.914C-229.17,110.656 -228.233,109.398 -227.282,108.139C-226.332,106.881 -225.369,105.636 -224.393,104.403C-222.955,102.554 -221.492,100.718 -220.002,98.895C-219.514,98.291 -219.013,97.688 -218.525,97.084C-217.524,95.89 -216.535,94.696 -215.521,93.502C-214.519,92.321 -213.492,91.139 -212.478,89.971C-210.578,87.788 -208.651,85.644 -206.7,83.525C-204.748,81.407 -202.784,79.313 -200.793,77.246C-199.201,75.59 -197.596,73.959 -195.978,72.341C-187.915,64.265 -179.543,56.625 -170.979,49.409C-169.284,47.971 -167.563,46.546 -165.843,45.133L-165.83,45.133C-164.109,43.721 -162.376,42.334 -160.642,40.96C-158.896,39.586 -157.15,38.225 -155.403,36.877C-153.657,35.542 -151.898,34.219 -150.152,32.91C-147.353,30.829 -144.554,28.788 -141.742,26.798C-140.291,25.758 -138.827,24.73 -137.363,23.716C-114.123,7.602 -90.497,-5.765 -68.335,-16.705C-66.075,-17.822 -63.828,-18.913 -61.594,-19.979C-3.762,-47.649 42.424,-58.499 42.424,-58.499C40.023,-59.963 37.647,-61.363 35.285,-62.711C33.705,-63.597 32.139,-64.483 30.585,-65.33C29.815,-65.754 29.032,-66.165 28.248,-66.575C26.707,-67.397 25.18,-68.193 23.652,-68.964C22.881,-69.362 22.123,-69.734 21.366,-70.107C19.851,-70.864 18.361,-71.583 16.859,-72.29C14.625,-73.342 12.404,-74.357 10.221,-75.307C8.757,-75.949 7.319,-76.552 5.881,-77.156C5.175,-77.451 4.443,-77.747 3.737,-78.029C2.324,-78.607 0.912,-79.159 -0.475,-79.698C-1.181,-79.955 -1.875,-80.225 -2.568,-80.481C-3.351,-80.764 -4.122,-81.046 -4.892,-81.329C-6.407,-81.868 -7.909,-82.382 -9.386,-82.883C-10.863,-83.383 -12.326,-83.858 -13.764,-84.321C-14.727,-84.616 -15.678,-84.911 -16.628,-85.194C-17.886,-85.579 -19.144,-85.938 -20.364,-86.285C-20.993,-86.465 -21.622,-86.632 -22.239,-86.799C-23.471,-87.132 -24.691,-87.454 -25.898,-87.762C-27.709,-88.224 -29.481,-88.648 -31.214,-89.033C-33.512,-89.559 -35.759,-90.021 -37.929,-90.445C-39.56,-90.754 -41.152,-91.036 -42.693,-91.293C-43.733,-91.46 -44.735,-91.614 -45.723,-91.755C-55.662,-93.244 -63.687,-93.617 -69.323,-93.617C-71.031,-93.617 -72.508,-93.591 -73.766,-93.54C-74.049,-93.527 -74.318,-93.514 -74.575,-93.501C-74.704,-93.488 -74.832,-93.488 -74.947,-93.476C-75.191,-93.476 -75.422,-93.463 -75.654,-93.45C-76.09,-93.412 -76.488,-93.386 -76.835,-93.36C-77.015,-93.347 -77.182,-93.334 -77.323,-93.322C-77.4,-93.322 -77.477,-93.309 -77.541,-93.309C-77.683,-93.283 -77.811,-93.283 -77.914,-93.27C-78.427,-93.219 -78.684,-93.18 -78.684,-93.18C-74.549,-96.75 -70.505,-100.178 -66.666,-103.388C-65.703,-104.184 -64.765,-104.98 -63.828,-105.751L-63.815,-105.751C-63.468,-106.046 -63.122,-106.328 -62.775,-106.611C-62.094,-107.176 -61.414,-107.741 -60.733,-108.306C-60.412,-108.575 -60.066,-108.858 -59.732,-109.128C-58.397,-110.219 -57.1,-111.272 -55.854,-112.299C-55.238,-112.8 -54.634,-113.301 -54.031,-113.789C-52.542,-115.009 -51.116,-116.164 -49.768,-117.23C-49.242,-117.666 -48.715,-118.077 -48.214,-118.488C-47.958,-118.693 -47.714,-118.899 -47.457,-119.092C-45.98,-120.273 -44.632,-121.352 -43.438,-122.302C-43.425,-122.302 -43.425,-122.315 -43.425,-122.315C-43.284,-122.43 -43.155,-122.533 -43.027,-122.636C-42.629,-122.931 -42.269,-123.213 -41.923,-123.496C-41.448,-123.868 -41.011,-124.215 -40.613,-124.536C-39.521,-125.396 -38.674,-126.064 -38.096,-126.5C-37.891,-126.667 -37.724,-126.796 -37.583,-126.898C-37.557,-126.924 -37.544,-126.937 -37.518,-126.937C-37.493,-126.963 -37.48,-126.975 -37.467,-126.988C-37.442,-127.001 -37.429,-127.014 -37.416,-127.027C-37.403,-127.053 -37.39,-127.065 -37.377,-127.065C-37.313,-127.117 -37.262,-127.155 -37.249,-127.168C-37.904,-127.656 -38.558,-128.144 -39.201,-128.632C-39.547,-128.863 -39.881,-129.107 -40.202,-129.338C-40.767,-129.736 -41.319,-130.121 -41.884,-130.506C-42.347,-130.815 -42.796,-131.123 -43.258,-131.431C-44.606,-132.33 -45.993,-133.216 -47.367,-134.089C-48.921,-135.065 -50.513,-136.002 -52.092,-136.952L-53.684,-137.877C-54.313,-138.249 -54.968,-138.621 -55.61,-138.981C-56.252,-139.341 -56.907,-139.7 -57.562,-140.047C-58.859,-140.766 -60.168,-141.459 -61.491,-142.127C-62.364,-142.589 -63.25,-143.038 -64.136,-143.462C-65.895,-144.348 -67.68,-145.195 -69.465,-146.017C-70.363,-146.428 -71.263,-146.839 -72.161,-147.237C-75.743,-148.829 -79.364,-150.319 -82.998,-151.718C-131.046,-170.208 -180.3,-171.826 -181.482,-171.852C-174.715,-175.883 -167.473,-179.568 -159.859,-182.907C-158.768,-183.395 -157.676,-183.857 -156.572,-184.319C-155.468,-184.782 -154.351,-185.244 -153.233,-185.693C-152.669,-185.924 -152.116,-186.143 -151.551,-186.361C-149.292,-187.26 -147.019,-188.12 -144.708,-188.955C-142.974,-189.584 -141.228,-190.2 -139.482,-190.791C-138.301,-191.202 -137.119,-191.587 -135.938,-191.972C-134.166,-192.563 -132.381,-193.128 -130.584,-193.68C-129.376,-194.039 -128.17,-194.412 -126.963,-194.771C-125.756,-195.131 -124.536,-195.477 -123.316,-195.824C-120.568,-196.594 -117.808,-197.352 -115.021,-198.071C-114.084,-198.315 -113.147,-198.546 -112.222,-198.777C-110.348,-199.24 -108.473,-199.689 -106.585,-200.138C-103.761,-200.806 -100.923,-201.435 -98.06,-202.051C-97.109,-202.257 -96.159,-202.449 -95.196,-202.655C-93.848,-202.925 -92.5,-203.207 -91.139,-203.464C-90.574,-203.58 -90.022,-203.695 -89.457,-203.798C-88.661,-203.952 -87.878,-204.093 -87.081,-204.247C-86.414,-204.375 -85.759,-204.504 -85.078,-204.619C-84.436,-204.748 -83.782,-204.864 -83.126,-204.979C-81.637,-205.249 -80.148,-205.506 -78.658,-205.762C-78.299,-205.827 -77.939,-205.891 -77.58,-205.955C-76.604,-206.109 -75.641,-206.276 -74.665,-206.43C-74.383,-206.469 -74.113,-206.52 -73.831,-206.571C-71.134,-207.008 -68.425,-207.419 -65.716,-207.817C-64.457,-207.996 -63.199,-208.189 -61.94,-208.356C-61.016,-208.484 -60.091,-208.613 -59.167,-208.741C-57.96,-208.908 -56.753,-209.062 -55.559,-209.216C-53.312,-209.511 -51.065,-209.794 -48.831,-210.051L-48.818,-210.051C-10.863,-209.358 54.378,-206.032 104.84,-192.332C152.219,-178.965 195.375,-162.517 233.151,-143.449L233.176,-143.424L233.215,-143.398C234.422,-142.807 235.616,-142.165 236.9,-141.511C237.747,-141.074 238.582,-140.625 239.43,-140.201C252.847,-132.522 295.617,-104.621 330.992,-43.964C333.483,-36.299 335.486,-29.481 337.066,-23.651L337.066,-23.638C335.858,-23.292 334.613,-23.009 333.329,-22.752C332.379,-22.572 331.403,-22.406 330.401,-22.265C327.41,-21.866 324.264,-21.648 320.977,-21.648C320.065,-21.648 319.166,-21.674 318.242,-21.699C317.587,-21.725 316.919,-21.738 316.252,-21.789C315.764,-21.815 315.25,-21.854 314.749,-21.892C314.043,-21.944 313.337,-21.995 312.631,-22.072C312.053,-22.123 311.488,-22.175 310.897,-22.251C310.384,-22.303 309.857,-22.354 309.344,-22.431C309.1,-22.47 308.881,-22.483 308.65,-22.521C308.021,-22.611 307.379,-22.701 306.75,-22.791C306.082,-22.893 305.389,-23.009 304.708,-23.138C304.221,-23.214 303.732,-23.304 303.219,-23.382C298.404,-24.28 293.448,-25.513 288.453,-27.028C286.373,-27.683 284.293,-28.364 282.212,-29.108C278.039,-30.585 273.841,-32.293 269.706,-34.193C267.626,-35.13 265.559,-36.132 263.517,-37.185C262.477,-37.698 261.476,-38.25 260.449,-38.79C259.434,-39.329 258.433,-39.894 257.418,-40.472C256.404,-41.037 255.415,-41.614 254.414,-42.205C253.027,-43.014 251.653,-43.874 250.305,-44.747C249.226,-45.428 248.122,-46.147 247.056,-46.879C246.029,-47.56 245.002,-48.278 243.987,-48.997C243.744,-49.177 243.474,-49.357 243.256,-49.511C242.151,-50.32 241.047,-51.129 239.982,-51.938C238.133,-53.35 236.361,-54.801 234.576,-56.291C233.266,-57.408 231.982,-58.55 230.711,-59.732C230.082,-60.31 229.44,-60.887 228.824,-61.478C228.194,-62.081 227.591,-62.672 226.988,-63.276C225.883,-64.457 224.766,-65.625 223.649,-66.768C223.084,-67.346 222.519,-67.911 221.941,-68.476C221.376,-69.041 220.799,-69.593 220.221,-70.158L220.144,-70.235C219.63,-70.723 219.116,-71.224 218.59,-71.712C217.023,-73.175 215.431,-74.626 213.839,-76.026L213.826,-76.026C212.401,-77.284 210.963,-78.504 209.499,-79.711C208.78,-80.315 208.048,-80.918 207.316,-81.509C206.572,-82.099 205.84,-82.677 205.108,-83.255C204.363,-83.833 203.618,-84.398 202.874,-84.963C201.718,-85.861 200.537,-86.722 199.356,-87.595C198.469,-88.237 197.571,-88.866 196.685,-89.495C196.017,-89.97 195.337,-90.445 194.669,-90.895C192.653,-92.281 190.624,-93.63 188.583,-94.952C186.721,-96.133 184.859,-97.302 182.997,-98.419C180.185,-100.114 177.373,-101.732 174.561,-103.298C172.687,-104.326 170.812,-105.327 168.937,-106.316L168.924,-106.316C167.05,-107.291 165.175,-108.229 163.313,-109.166C162.312,-109.654 161.323,-110.129 160.334,-110.604C152.399,-114.379 144.58,-117.666 137.081,-120.517C136.144,-120.876 135.206,-121.223 134.295,-121.557L134.282,-121.557C133.357,-121.904 132.433,-122.237 131.521,-122.571C130.61,-122.892 129.698,-123.213 128.799,-123.521L128.786,-123.521C127.888,-123.842 127.002,-124.151 126.103,-124.459C123.445,-125.358 120.825,-126.205 118.296,-126.988C113.507,-128.478 109,-129.775 104.814,-130.892C103.902,-131.148 103.004,-131.38 102.118,-131.598C101.244,-131.829 100.384,-132.047 99.536,-132.266C98.266,-132.574 97.033,-132.869 95.852,-133.152C95.826,-133.164 95.8,-133.177 95.774,-133.177C95.017,-133.357 94.272,-133.524 93.553,-133.691C93.284,-133.755 93.014,-133.819 92.744,-133.884C90.869,-134.294 89.136,-134.679 87.531,-135.013L87.518,-135.013C87.043,-135.116 86.581,-135.206 86.131,-135.296C85.682,-135.386 85.246,-135.489 84.822,-135.565C84.398,-135.642 83.974,-135.72 83.589,-135.797C83.179,-135.874 82.806,-135.951 82.421,-136.015C82.408,-136.028 82.382,-136.041 82.369,-136.041C82.074,-136.092 81.792,-136.143 81.522,-136.195C80.431,-136.387 79.468,-136.554 78.646,-136.695C78.017,-136.811 77.49,-136.888 77.041,-136.965C76.925,-136.978 76.822,-137.004 76.72,-137.016C76.617,-137.029 76.527,-137.042 76.437,-137.055C75.975,-137.119 75.641,-137.17 75.461,-137.196C75.436,-137.196 75.41,-137.209 75.384,-137.209L75.346,-137.209C75.372,-137.183 75.41,-137.17 75.474,-137.132C75.5,-137.119 75.526,-137.106 75.564,-137.081C75.603,-137.055 75.641,-137.042 75.693,-137.016C78.389,-135.527 94.786,-126.475 112.441,-114.752C112.454,-114.739 112.454,-114.726 112.479,-114.713C112.505,-114.7 112.518,-114.688 112.544,-114.674C128.542,-104.043 145.543,-91.241 154.261,-79.929L154.261,-79.891C154.171,-79.814 153.645,-79.39 152.823,-78.671C152.643,-78.517 152.438,-78.337 152.232,-78.144C152.014,-77.952 151.796,-77.747 151.552,-77.515C151.205,-77.194 150.82,-76.822 150.409,-76.424C150.268,-76.283 150.114,-76.142 149.972,-75.987L149.459,-75.487C149.305,-75.307 149.138,-75.14 148.945,-74.96L148.945,-74.947C148.778,-74.768 148.598,-74.588 148.419,-74.395C148.277,-74.254 148.136,-74.1 148.008,-73.946C147.597,-73.509 147.186,-73.034 146.737,-72.546C146.557,-72.328 146.365,-72.11 146.159,-71.879C145.966,-71.648 145.774,-71.416 145.581,-71.185C145.376,-70.941 145.183,-70.71 144.978,-70.466L144.978,-70.453C144.734,-70.158 144.49,-69.85 144.233,-69.529L144.233,-69.516C143.989,-69.195 143.732,-68.874 143.488,-68.54C142.975,-67.872 142.487,-67.192 141.986,-66.473C141.588,-65.908 141.19,-65.317 140.805,-64.714C140.291,-63.905 139.777,-63.083 139.264,-62.223C137.518,-59.218 135.938,-55.906 134.744,-52.31C132.176,-44.619 131.38,-35.682 134.526,-25.988C134.783,-25.218 135.052,-24.447 135.348,-23.677C135.451,-23.42 135.553,-23.163 135.669,-22.893C135.669,-22.893 131.47,-22.316 124.716,-20.557C124.318,-20.454 123.907,-20.339 123.496,-20.236C121.429,-19.671 119.143,-19.003 116.691,-18.207C115.715,-17.899 114.714,-17.565 113.674,-17.205C112.646,-16.846 111.594,-16.473 110.502,-16.076C110.053,-15.909 109.578,-15.729 109.115,-15.549C109.013,-15.51 108.91,-15.485 108.807,-15.434C108.255,-15.228 107.703,-15.01 107.138,-14.792C106.034,-14.355 104.93,-13.893 103.799,-13.418C103.222,-13.174 102.644,-12.917 102.053,-12.673C101.989,-12.635 101.938,-12.609 101.861,-12.583C101.141,-12.262 100.423,-11.941 99.704,-11.607C99.421,-11.466 99.126,-11.351 98.843,-11.209C98.638,-11.119 98.445,-11.03 98.252,-10.94C96.75,-10.22 95.21,-9.463 93.669,-8.667C93.322,-8.487 92.963,-8.307 92.616,-8.127C92.539,-8.076 92.462,-8.038 92.372,-7.999C92.359,-7.986 92.346,-7.973 92.333,-7.973C91.55,-7.55 90.767,-7.126 89.971,-6.689C88.751,-6.009 87.531,-5.315 86.299,-4.584C86.26,-4.571 86.234,-4.545 86.209,-4.532C84.976,-3.8 83.731,-3.03 82.485,-2.234C81.984,-1.913 81.458,-1.579 80.944,-1.245C79.917,-0.565 78.903,0.142 77.875,0.848C76.938,1.503 76.001,2.17 75.076,2.864C74.986,2.928 74.896,3.005 74.807,3.069C74.64,3.185 74.46,3.313 74.306,3.441C72.919,4.481 71.558,5.547 70.197,6.664C69.208,7.486 68.22,8.321 67.244,9.168C66.884,9.489 66.512,9.81 66.152,10.144C65.536,10.696 64.907,11.274 64.29,11.852C63.289,12.789 62.3,13.752 61.311,14.741C60.978,15.074 60.644,15.395 60.323,15.742C59.886,16.205 59.463,16.641 59.026,17.103C58.461,17.72 57.896,18.336 57.331,18.965C56.676,19.684 56.047,20.416 55.405,21.161C54.468,22.278 53.531,23.408 52.606,24.576C52.311,24.962 52.002,25.359 51.695,25.758C51.245,26.348 50.796,26.952 50.359,27.568C49.91,28.172 49.473,28.788 49.037,29.404C48.459,30.239 47.881,31.086 47.316,31.934C47.033,32.37 46.751,32.807 46.469,33.231C46.199,33.667 45.917,34.104 45.647,34.553C45.377,34.989 45.107,35.426 44.838,35.876C44.568,36.325 44.298,36.774 44.042,37.236C43.785,37.686 43.515,38.135 43.259,38.61C42.976,39.098 42.693,39.599 42.424,40.1C42.026,40.857 41.628,41.615 41.23,42.398C39.188,46.379 37.326,50.616 35.696,55.084C35.31,56.163 34.938,57.241 34.566,58.333C31.677,67.025 29.622,76.604 28.608,87.197C28.608,87.197 44.144,66.486 68.207,52.17C77.387,46.7 87.801,42.18 99.1,40.074C108.011,38.43 117.461,38.289 127.245,40.434C127.387,40.459 127.528,40.498 127.669,40.524C128.388,40.691 129.107,40.857 129.813,41.05L131.008,41.358C131.765,41.564 132.523,41.782 133.267,42.026C134.153,42.308 135.039,42.591 135.913,42.899L135.925,42.912C136.259,43.027 136.593,43.156 136.927,43.271C137.929,43.644 138.943,44.029 139.945,44.466L139.957,44.466C142.987,45.724 146.03,47.213 149.099,48.985L149.112,48.985C150.139,49.576 151.166,50.192 152.194,50.834C155.699,52.786 159.281,55.123 162.248,57.177C165.201,59.232 167.538,60.991 168.565,61.774C166.844,61.44 161.323,61.068 144.644,61.196C116.884,61.427 93.13,69.542 92.385,69.786C92.385,69.799 92.372,69.799 92.372,69.799L92.282,69.838L92.179,69.876L91.409,70.172C80.995,74.087 70.775,79.236 61.325,85.31L54.609,89.842C39.483,101.36 12.866,130.083 0.54,157.792C-7.293,176.59 -11.466,196.8 -11.646,217.447C-11.671,218.064 -11.671,218.59 -11.671,218.988C-11.671,219.335 -11.671,219.758 -11.659,220.246L-11.659,221.505C-11.659,221.89 -11.646,222.339 -11.62,222.879C-11.607,223.79 -11.582,224.805 -11.517,225.883L-11.505,226.102C-11.479,226.846 -11.44,227.668 -11.376,228.592C-11.312,229.979 -11.209,231.25 -11.119,232.38C-11.119,232.38 -11.107,232.496 -11.081,232.727C-11.081,232.791 -11.068,232.868 -11.068,232.932C-11.055,233.009 -11.055,233.099 -11.042,233.189C-11.017,233.395 -11.004,233.626 -10.978,233.895C-10.952,234.075 -10.94,234.268 -10.927,234.473C-10.914,234.55 -10.901,234.653 -10.888,234.743C-10.875,234.935 -10.85,235.128 -10.837,235.334C-10.786,235.719 -10.734,236.13 -10.683,236.579C-10.657,236.874 -10.619,237.182 -10.58,237.491C-10.503,238.12 -10.426,238.8 -10.323,239.532C-10.31,239.635 -10.298,239.738 -10.285,239.84L-10.285,239.892C-10.105,241.189 -9.9,242.639 -9.668,244.193C-9.476,245.49 -9.258,246.838 -9.001,248.264C-7.961,254.35 -6.446,261.566 -4.301,268.808C-2.709,274.162 -0.899,278.874 0.861,282.855C-3.646,305.351 -5.406,336.347 5.829,369.833C6.394,371.528 6.998,373.223 7.627,374.931C8.102,376.202 8.603,377.473 9.117,378.744C9.283,379.181 9.463,379.618 9.643,380.041C10.349,381.762 11.081,383.47 11.851,385.19C12.339,386.269 12.853,387.347 13.354,388.426C13.867,389.492 14.407,390.57 14.946,391.649L14.946,391.662C15.382,392.522 15.832,393.382 16.281,394.243L16.281,394.255C16.744,395.116 17.206,395.989 17.681,396.849C17.912,397.286 18.156,397.722 18.4,398.159C19.132,399.456 19.876,400.765 20.647,402.062C21.546,403.59 22.483,405.118 23.459,406.633C24.422,408.161 25.423,409.676 26.451,411.191C37.082,426.895 51.258,442.598 69.927,457.762C72.213,459.611 74.55,461.448 76.964,463.284C78.171,464.195 79.39,465.107 80.636,466.019C82.19,467.161 83.756,468.291 85.374,469.421C90.176,472.811 95.248,476.15 100.551,479.462C100.564,479.475 100.564,479.475 100.577,479.488C60.169,469.832 27.08,456.093 0.013,439.812L0,439.812ZM383.816,77.708C387.245,80.456 389.543,82.292 391.058,83.499C391.071,83.512 391.084,83.525 391.097,83.525C392.381,84.552 393.113,85.117 393.485,85.4C393.69,85.554 393.793,85.631 393.844,85.669C393.832,85.644 393.819,85.631 393.793,85.605C406.723,95.903 409.676,105.674 410.716,112.467C413.425,130.263 405.067,154.236 385.819,184.037C381.672,161.439 366.829,141.652 345.977,131.444C314.749,116.152 263.042,92.552 213.582,77.708C209.589,76.566 205.583,75.436 201.564,74.332C218.873,70.556 245.413,65.395 275.523,61.748C306.313,58.025 328.026,56.176 340.841,55.264C358.868,62.647 374.738,70.415 383.816,77.708M171.261,-61.915L201.32,-57.793C201.32,-57.793 195.452,-30.675 209.628,-23.549C223.816,-16.409 240.714,-27.054 240.714,-27.054L251.538,-20.736L260.962,-15.228C260.962,-15.228 260.513,-14.83 259.678,-14.124C252.475,-8.166 216.587,19.363 188.031,0.54C156.149,-20.505 171.261,-61.915 171.261,-61.915M90.459,524.274C178.015,522.464 246.761,494.01 299.56,456.697C406.261,381.325 447.965,269.784 448.428,268.487C446.758,270.682 275.895,494.472 71.031,380.953C74.999,382.365 206.584,428.14 262.131,304.195C266.33,294.835 270.246,284.55 273.841,273.302C269.976,282.303 265.187,290.803 259.576,298.687C258.792,299.804 257.996,300.882 257.187,301.948C255.569,304.079 253.887,306.185 252.154,308.227C251.422,309.1 250.69,309.935 249.933,310.769C249.65,311.064 249.393,311.385 249.098,311.681C248.328,312.528 247.544,313.388 246.748,314.223C246.684,314.274 246.633,314.326 246.607,314.39C245.708,315.289 244.822,316.2 243.924,317.074C242.961,318.037 242.01,318.961 241.009,319.86C240.174,320.669 239.327,321.439 238.454,322.184C238.184,322.454 237.902,322.685 237.606,322.941C236.784,323.648 235.962,324.367 235.102,325.06C234.075,325.933 233.022,326.781 231.956,327.59C231.315,328.103 230.66,328.604 229.992,329.092C229.337,329.605 228.669,330.106 228.002,330.581C227.129,331.211 226.256,331.827 225.369,332.418C223.983,333.406 222.545,334.344 221.094,335.268C220.413,335.717 219.707,336.154 219.001,336.565C215.213,338.902 211.31,341.033 207.291,342.972C206.353,343.447 205.416,343.884 204.453,344.307C202.168,345.36 199.843,346.336 197.506,347.261C196.89,347.517 196.248,347.749 195.619,347.992C193.706,348.712 191.728,349.392 189.751,350.034C189.199,350.214 188.621,350.394 188.031,350.573C186.811,350.946 185.553,351.331 184.281,351.652C183.344,351.934 182.406,352.178 181.469,352.422C180.249,352.743 179.017,353.039 177.797,353.308C177.104,353.462 176.423,353.616 175.743,353.758C174.908,353.937 174.06,354.104 173.226,354.271C172.391,354.425 171.544,354.592 170.671,354.721C169.849,354.862 169.002,355.003 168.141,355.132C167.23,355.273 166.305,355.401 165.368,355.53C164.828,355.607 164.328,355.658 163.801,355.722C162.594,355.876 161.387,356.005 160.154,356.108C158.742,356.236 157.33,356.351 155.892,356.441C154.787,356.505 153.696,356.57 152.566,356.595C152.194,356.608 151.808,356.634 151.423,356.634C150.062,356.698 148.663,356.711 147.263,356.711C119.76,356.711 94.118,348.634 72.598,334.716C71.443,333.984 70.3,333.214 69.157,332.418C69.054,332.353 68.926,332.263 68.823,332.186C67.821,331.506 66.833,330.8 65.857,330.068C65.639,329.914 65.421,329.76 65.228,329.605C64.56,329.118 63.905,328.63 63.263,328.116C62.647,327.654 62.018,327.166 61.414,326.665C60.58,326.01 59.796,325.368 58.988,324.688C58.101,323.956 57.216,323.198 56.343,322.441C55.328,321.529 54.288,320.605 53.3,319.667C52.593,319.012 51.887,318.345 51.194,317.664C50.95,317.433 50.718,317.202 50.487,316.971C49.961,316.457 49.434,315.944 48.921,315.392C48.253,314.711 47.573,314.018 46.931,313.311C46.828,313.222 46.738,313.106 46.661,313.029C45.955,312.284 45.261,311.527 44.594,310.769C44.144,310.294 43.759,309.845 43.361,309.37C41.936,307.739 40.523,306.083 39.188,304.375C39.162,304.31 39.111,304.246 39.06,304.195C38.508,303.502 37.994,302.821 37.455,302.115C36.941,301.421 36.415,300.715 35.901,300.009C35.092,298.905 34.296,297.801 33.526,296.671C32.884,295.72 32.229,294.745 31.587,293.769C30.752,292.472 29.917,291.149 29.109,289.788C28.633,288.992 28.159,288.196 27.696,287.387C27.542,287.105 27.401,286.835 27.234,286.566C26.772,285.731 26.322,284.922 25.873,284.087C24.756,282.02 23.69,279.927 22.702,277.796C22.393,277.179 22.111,276.563 21.841,275.947C21.61,275.433 21.379,274.932 21.148,274.406C20.917,273.905 20.698,273.392 20.506,272.891C19.697,271.029 18.927,269.116 18.233,267.203C17.887,266.278 17.54,265.354 17.206,264.429C16.359,261.977 15.562,259.46 14.843,256.931C14.574,255.98 14.291,255.043 14.06,254.08C14.047,254.016 14.034,253.939 14.009,253.875C13.701,252.706 13.418,251.525 13.135,250.356C12.866,249.188 12.596,248.007 12.365,246.812C11.312,240.996 10.645,236.438 10.542,235.629C10.516,235.539 10.516,235.5 10.516,235.5C10.323,233.895 10.157,232.278 10.028,230.647C9.939,229.543 9.849,228.438 9.797,227.321C9.733,226.499 9.707,225.691 9.669,224.856C9.604,223.88 9.592,222.904 9.579,221.916C9.553,221.8 9.553,221.646 9.553,221.505C9.579,221.428 9.579,221.363 9.579,221.287C9.553,220.914 9.54,220.529 9.553,220.156C9.54,219.771 9.54,219.386 9.54,218.988C9.54,218.628 9.54,218.256 9.553,217.897C9.759,190.419 18.028,164.854 32.075,143.45C40.459,130.674 50.924,119.413 62.955,110.065C66.422,107.382 70.03,104.865 73.728,102.528C77.477,100.179 81.342,97.983 85.284,95.993C86.093,95.595 86.889,95.184 87.711,94.812C96.224,91.024 100.91,89.2 104.275,88.391C107.639,87.544 111.003,86.799 114.405,86.157C122.341,85.259 134.423,84.783 152.464,85.849C158.113,86.645 163.955,87.698 169.939,88.956C227.129,101.039 296.889,132.869 332.982,150.537C348.93,158.357 359.716,173.868 361.372,191.549C363.94,218.95 364.042,248.315 364.042,248.315C432.673,167.294 461.91,98.676 397.414,57.64C394.705,55.919 391.829,54.237 388.773,52.606C388.76,52.529 388.721,52.452 388.708,52.362C384.022,36.518 377.204,16.256 371.104,-1.271C363.876,-22.085 357.661,-39.034 357.237,-40.176C357.225,-40.215 357.225,-40.228 357.225,-40.228L356.056,-42.513C317.433,-115.265 266.946,-148.971 249.509,-158.857C247.249,-160.013 245.028,-161.207 242.704,-162.376C205.596,-181.109 160.604,-198.765 108.538,-213.325C57.216,-227.68 -10.465,-232.765 -81.83,-226.73C-230.261,-214.198 -394.666,-153.631 -461.152,-28.556C-458.892,-30.726 -280.915,-200.857 -79.21,-123.136C-79.21,-123.136 -154.697,-75.024 -171.608,-23.574C-171.492,-23.664 -170.927,-24.036 -170.118,-24.614C-157.715,-33.525 -96.031,-68.694 -10.002,-61.298C-10.002,-61.298 -95.286,-53.081 -194.476,25.706C-203.811,33.115 -213.132,40.947 -222.352,49.794C-222.352,49.794 -232.239,-40.883 -175.28,-87.132C-175.28,-87.132 -325.56,-70.582 -389.44,110.669C-461.781,315.957 -290.905,501.098 -288.722,503.486C-289.223,502.395 -327.756,422.131 -316.393,313.222C-314.518,295.22 -311.282,276.435 -306.274,257.085C-306.274,257.085 -300.972,303.091 -279.991,362.232L-279.542,363.491L-279.542,363.503L-279.529,363.503L-279.529,363.529L-278.977,365.083L-278.835,365.468L-278.835,365.481C-277.641,368.793 -276.383,372.106 -275.086,375.432C-232.56,483.982 -135.591,596.435 79.211,616.184C-15.305,593.148 -77.875,559.353 -118.257,521.116C-118.283,521.103 -118.296,521.09 -118.308,521.077C-125.987,513.809 -132.754,506.247 -138.686,498.453L-138.66,498.453C-117.345,513.206 126.103,672.577 367.201,463.387C364.351,465.223 275.536,522.322 177.912,531.503C148.868,534.251 119.028,532.736 90.459,524.274" style="fill-rule:nonzero;"/>
                </g>
            </g>
        </g>
        <g id="Livello-1" serif:id="Livello 1">
        </g>
    </g>
</svg>
