<?xml version="1.0" encoding="UTF-8" standalone="no"?>
<!DOCTYPE svg PUBLIC "-//W3C//DTD SVG 1.1//EN" "http://www.w3.org/Graphics/SVG/1.1/DTD/svg11.dtd">
<svg width="100%" height="100%" viewBox="0 0 2500 2500" version="1.1" xmlns="http://www.w3.org/2000/svg" xmlns:xlink="http://www.w3.org/1999/xlink" xml:space="preserve" xmlns:serif="http://www.serif.com/" style="fill-rule:evenodd;clip-rule:evenodd;stroke-linejoin:round;stroke-miterlimit:2;">
    <g transform="matrix(1,0,0,1,-65645,-6726)">
        <g id="BRONZE">
        </g>
        <g id="fronte">
        </g>
        <g id="Artboard73" transform="matrix(1.70184,0,0,2.85714,-46072.2,-12491.1)">
            <rect x="65645" y="6726" width="1469" height="875" style="fill:none;"/>
            <clipPath id="_clip1">
                <rect x="65645" y="6726" width="1469" height="875"/>
            </clipPath>
            <g clip-path="url(#_clip1)">
                <g transform="matrix(0.455081,0,0,0.324194,35913.7,4595.07)">
                    <rect x="65332" y="6573" width="3228" height="2699"/>
                </g>
                <g id="MIX_35-" serif:id="MIX_35%" transform="matrix(1.79045,0,0,1.14045,24550.3,-1538.82)">
                    <g transform="matrix(0.269935,0,0,0.128566,25947,6163.15)">
                        <g transform="matrix(3.53937,0,0,6.94913,-204168,-20532)">
                            <g transform="matrix(30.0269,0,0,30.0269,54927.9,4654.79)">
                                <path d="M0.008,-0.714L0.586,-0.714L0.586,-0.606L0.359,-0.606L0.359,-0L0.234,-0L0.234,-0.606L0.008,-0.606L0.008,-0.714Z" style="fill:white;fill-rule:nonzero;"/>
                            </g>
                            <g transform="matrix(30.0269,0,0,30.0269,54951.8,4654.79)">
                                <path d="M0.076,-0.714L0.417,-0.714C0.496,-0.714 0.555,-0.697 0.594,-0.663C0.633,-0.629 0.653,-0.582 0.653,-0.521C0.653,-0.487 0.648,-0.459 0.638,-0.437C0.628,-0.414 0.616,-0.396 0.603,-0.383C0.59,-0.369 0.576,-0.359 0.564,-0.353C0.551,-0.347 0.541,-0.343 0.535,-0.341L0.535,-0.339C0.546,-0.338 0.557,-0.334 0.57,-0.329C0.582,-0.324 0.593,-0.315 0.604,-0.304C0.615,-0.292 0.624,-0.277 0.631,-0.258C0.638,-0.239 0.641,-0.216 0.641,-0.188C0.641,-0.146 0.644,-0.108 0.651,-0.074C0.657,-0.039 0.667,-0.015 0.68,-0L0.546,-0C0.537,-0.015 0.531,-0.032 0.53,-0.051C0.528,-0.07 0.527,-0.088 0.527,-0.105C0.527,-0.138 0.525,-0.166 0.521,-0.19C0.517,-0.213 0.51,-0.233 0.499,-0.249C0.488,-0.264 0.474,-0.276 0.456,-0.283C0.437,-0.29 0.414,-0.294 0.385,-0.294L0.201,-0.294L0.201,-0L0.076,-0L0.076,-0.714ZM0.201,-0.389L0.406,-0.389C0.446,-0.389 0.476,-0.399 0.497,-0.418C0.518,-0.436 0.528,-0.465 0.528,-0.503C0.528,-0.526 0.525,-0.544 0.518,-0.559C0.511,-0.573 0.502,-0.584 0.491,-0.592C0.479,-0.6 0.466,-0.605 0.451,-0.608C0.436,-0.611 0.42,-0.612 0.404,-0.612L0.201,-0.612L0.201,-0.389Z" style="fill:white;fill-rule:nonzero;"/>
                            </g>
                            <g transform="matrix(30.0269,0,0,30.0269,54979.1,4654.79)">
                                <path d="M0.076,-0.714L0.59,-0.714L0.59,-0.606L0.201,-0.606L0.201,-0.419L0.561,-0.419L0.561,-0.317L0.201,-0.317L0.201,-0.108L0.597,-0.108L0.597,-0L0.076,-0L0.076,-0.714Z" style="fill:white;fill-rule:nonzero;"/>
                            </g>
                            <g transform="matrix(30.0269,0,0,30.0269,55004.2,4654.79)">
                                <path d="M0.071,-0.714L0.203,-0.714L0.529,-0.188L0.531,-0.188L0.531,-0.714L0.65,-0.714L0.65,-0L0.518,-0L0.193,-0.525L0.19,-0.525L0.19,-0L0.071,-0L0.071,-0.714Z" style="fill:white;fill-rule:nonzero;"/>
                            </g>
                            <g transform="matrix(30.0269,0,0,30.0269,55032,4654.79)">
                                <path d="M0.008,-0.714L0.586,-0.714L0.586,-0.606L0.359,-0.606L0.359,-0L0.234,-0L0.234,-0.606L0.008,-0.606L0.008,-0.714Z" style="fill:white;fill-rule:nonzero;"/>
                            </g>
                            <g transform="matrix(30.0269,0,0,30.0269,55056,4654.79)">
                                <path d="M0.38,-0.629C0.342,-0.629 0.309,-0.621 0.282,-0.606C0.254,-0.591 0.231,-0.57 0.214,-0.545C0.197,-0.519 0.184,-0.49 0.176,-0.457C0.167,-0.424 0.163,-0.391 0.163,-0.357C0.163,-0.323 0.167,-0.29 0.176,-0.257C0.184,-0.224 0.197,-0.195 0.214,-0.17C0.231,-0.144 0.254,-0.123 0.282,-0.108C0.309,-0.093 0.342,-0.085 0.38,-0.085C0.418,-0.085 0.451,-0.093 0.479,-0.108C0.506,-0.123 0.529,-0.144 0.546,-0.17C0.563,-0.195 0.576,-0.224 0.585,-0.257C0.593,-0.29 0.597,-0.323 0.597,-0.357C0.597,-0.391 0.593,-0.424 0.585,-0.457C0.576,-0.49 0.563,-0.519 0.546,-0.545C0.529,-0.57 0.506,-0.591 0.479,-0.606C0.451,-0.621 0.418,-0.629 0.38,-0.629ZM0.38,-0.731C0.433,-0.731 0.481,-0.721 0.524,-0.701C0.566,-0.681 0.602,-0.654 0.631,-0.62C0.66,-0.586 0.683,-0.546 0.699,-0.501C0.714,-0.456 0.722,-0.408 0.722,-0.357C0.722,-0.306 0.714,-0.257 0.699,-0.212C0.683,-0.167 0.66,-0.127 0.631,-0.093C0.602,-0.059 0.566,-0.032 0.524,-0.013C0.481,0.007 0.433,0.017 0.38,0.017C0.327,0.017 0.279,0.007 0.237,-0.013C0.194,-0.032 0.158,-0.059 0.129,-0.093C0.1,-0.127 0.077,-0.167 0.062,-0.212C0.046,-0.257 0.038,-0.306 0.038,-0.357C0.038,-0.408 0.046,-0.456 0.062,-0.501C0.077,-0.546 0.1,-0.586 0.129,-0.62C0.158,-0.654 0.194,-0.681 0.237,-0.701C0.279,-0.721 0.327,-0.731 0.38,-0.731Z" style="fill:white;fill-rule:nonzero;"/>
                            </g>
                            <g transform="matrix(30.0269,0,0,30.0269,55099.5,4654.79)">
                                <path d="M0.076,-0.714L0.417,-0.714C0.496,-0.714 0.555,-0.697 0.594,-0.663C0.633,-0.629 0.653,-0.582 0.653,-0.521C0.653,-0.487 0.648,-0.459 0.638,-0.437C0.628,-0.414 0.616,-0.396 0.603,-0.383C0.59,-0.369 0.576,-0.359 0.564,-0.353C0.551,-0.347 0.541,-0.343 0.535,-0.341L0.535,-0.339C0.546,-0.338 0.557,-0.334 0.57,-0.329C0.582,-0.324 0.593,-0.315 0.604,-0.304C0.615,-0.292 0.624,-0.277 0.631,-0.258C0.638,-0.239 0.641,-0.216 0.641,-0.188C0.641,-0.146 0.644,-0.108 0.651,-0.074C0.657,-0.039 0.667,-0.015 0.68,-0L0.546,-0C0.537,-0.015 0.531,-0.032 0.53,-0.051C0.528,-0.07 0.527,-0.088 0.527,-0.105C0.527,-0.138 0.525,-0.166 0.521,-0.19C0.517,-0.213 0.51,-0.233 0.499,-0.249C0.488,-0.264 0.474,-0.276 0.456,-0.283C0.437,-0.29 0.414,-0.294 0.385,-0.294L0.201,-0.294L0.201,-0L0.076,-0L0.076,-0.714ZM0.201,-0.389L0.406,-0.389C0.446,-0.389 0.476,-0.399 0.497,-0.418C0.518,-0.436 0.528,-0.465 0.528,-0.503C0.528,-0.526 0.525,-0.544 0.518,-0.559C0.511,-0.573 0.502,-0.584 0.491,-0.592C0.479,-0.6 0.466,-0.605 0.451,-0.608C0.436,-0.611 0.42,-0.612 0.404,-0.612L0.201,-0.612L0.201,-0.389Z" style="fill:white;fill-rule:nonzero;"/>
                            </g>
                            <g transform="matrix(30.0269,0,0,30.0269,55126.8,4654.79)">
                                <path d="M0.267,-0.714L0.4,-0.714L0.675,-0L0.541,-0L0.474,-0.189L0.189,-0.189L0.122,-0L-0.007,-0L0.267,-0.714ZM0.223,-0.284L0.441,-0.284L0.334,-0.591L0.331,-0.591L0.223,-0.284Z" style="fill:white;fill-rule:nonzero;"/>
                            </g>
                            <g transform="matrix(30.0269,0,0,30.0269,55152.9,4654.79)">
                                <path d="M0.558,-0.487C0.553,-0.508 0.545,-0.527 0.536,-0.544C0.527,-0.561 0.515,-0.576 0.5,-0.589C0.485,-0.602 0.468,-0.612 0.449,-0.619C0.429,-0.626 0.406,-0.629 0.38,-0.629C0.342,-0.629 0.309,-0.621 0.282,-0.606C0.254,-0.591 0.231,-0.57 0.214,-0.545C0.197,-0.519 0.184,-0.49 0.176,-0.457C0.167,-0.424 0.163,-0.391 0.163,-0.357C0.163,-0.323 0.167,-0.29 0.176,-0.257C0.184,-0.224 0.197,-0.195 0.214,-0.17C0.231,-0.144 0.254,-0.123 0.282,-0.108C0.309,-0.093 0.342,-0.085 0.38,-0.085C0.408,-0.085 0.433,-0.09 0.454,-0.1C0.475,-0.109 0.494,-0.123 0.509,-0.14C0.524,-0.157 0.536,-0.176 0.545,-0.199C0.554,-0.222 0.559,-0.246 0.562,-0.272L0.684,-0.272C0.681,-0.229 0.672,-0.19 0.657,-0.155C0.641,-0.12 0.62,-0.089 0.593,-0.064C0.566,-0.038 0.535,-0.018 0.499,-0.004C0.463,0.01 0.423,0.017 0.38,0.017C0.327,0.017 0.279,0.007 0.237,-0.013C0.194,-0.032 0.158,-0.059 0.129,-0.093C0.1,-0.127 0.077,-0.167 0.062,-0.212C0.046,-0.257 0.038,-0.306 0.038,-0.357C0.038,-0.408 0.046,-0.456 0.062,-0.501C0.077,-0.546 0.1,-0.586 0.129,-0.62C0.158,-0.654 0.194,-0.681 0.237,-0.701C0.279,-0.721 0.327,-0.731 0.38,-0.731C0.42,-0.731 0.458,-0.725 0.493,-0.715C0.528,-0.704 0.56,-0.688 0.587,-0.667C0.614,-0.646 0.635,-0.62 0.652,-0.59C0.669,-0.56 0.679,-0.526 0.683,-0.487L0.558,-0.487Z" style="fill:white;fill-rule:nonzero;"/>
                            </g>
                            <g transform="matrix(30.0269,0,0,30.0269,55180.8,4654.79)">
                                <rect x="0.076" y="-0.714" width="0.125" height="0.714" style="fill:white;fill-rule:nonzero;"/>
                            </g>
                            <g transform="matrix(30.0269,0,0,30.0269,55195.3,4654.79)">
                                <path d="M0.071,-0.714L0.203,-0.714L0.529,-0.188L0.531,-0.188L0.531,-0.714L0.65,-0.714L0.65,-0L0.518,-0L0.193,-0.525L0.19,-0.525L0.19,-0L0.071,-0L0.071,-0.714Z" style="fill:white;fill-rule:nonzero;"/>
                            </g>
                            <g transform="matrix(30.0269,0,0,30.0269,55223.1,4654.79)">
                                <path d="M0.699,-0L0.619,-0L0.6,-0.084C0.567,-0.046 0.533,-0.02 0.5,-0.005C0.467,0.01 0.428,0.017 0.385,0.017C0.332,0.017 0.284,0.007 0.242,-0.013C0.199,-0.032 0.163,-0.059 0.134,-0.093C0.105,-0.127 0.082,-0.167 0.067,-0.212C0.051,-0.257 0.043,-0.306 0.043,-0.357C0.043,-0.408 0.051,-0.456 0.067,-0.501C0.082,-0.546 0.105,-0.586 0.134,-0.62C0.163,-0.654 0.199,-0.681 0.242,-0.701C0.284,-0.721 0.332,-0.731 0.385,-0.731C0.424,-0.731 0.46,-0.726 0.496,-0.716C0.531,-0.705 0.562,-0.69 0.589,-0.67C0.616,-0.649 0.639,-0.624 0.657,-0.593C0.675,-0.562 0.686,-0.527 0.691,-0.487L0.569,-0.487C0.566,-0.51 0.559,-0.531 0.548,-0.549C0.537,-0.566 0.523,-0.581 0.506,-0.593C0.489,-0.605 0.471,-0.614 0.45,-0.62C0.429,-0.626 0.408,-0.629 0.385,-0.629C0.347,-0.629 0.314,-0.621 0.287,-0.606C0.259,-0.591 0.236,-0.57 0.219,-0.545C0.202,-0.519 0.189,-0.49 0.181,-0.457C0.172,-0.424 0.168,-0.391 0.168,-0.357C0.168,-0.323 0.172,-0.29 0.181,-0.257C0.189,-0.224 0.202,-0.195 0.219,-0.17C0.236,-0.144 0.259,-0.123 0.287,-0.108C0.314,-0.093 0.347,-0.085 0.385,-0.085C0.417,-0.084 0.445,-0.089 0.47,-0.098C0.495,-0.107 0.516,-0.12 0.533,-0.137C0.55,-0.154 0.562,-0.174 0.571,-0.199C0.58,-0.224 0.584,-0.251 0.585,-0.281L0.395,-0.281L0.395,-0.376L0.699,-0.376L0.699,-0Z" style="fill:white;fill-rule:nonzero;"/>
                            </g>
                            <g transform="matrix(30.0269,0,0,30.0269,55266.6,4654.79)">
                                <path d="M0.008,-0.714L0.586,-0.714L0.586,-0.606L0.359,-0.606L0.359,-0L0.234,-0L0.234,-0.606L0.008,-0.606L0.008,-0.714Z" style="fill:white;fill-rule:nonzero;"/>
                            </g>
                            <g transform="matrix(30.0269,0,0,30.0269,55290.5,4654.79)">
                                <path d="M0.076,-0.714L0.59,-0.714L0.59,-0.606L0.201,-0.606L0.201,-0.419L0.561,-0.419L0.561,-0.317L0.201,-0.317L0.201,-0.108L0.597,-0.108L0.597,-0L0.076,-0L0.076,-0.714Z" style="fill:white;fill-rule:nonzero;"/>
                            </g>
                            <g transform="matrix(30.0269,0,0,30.0269,55315.6,4654.79)">
                                <path d="M0.267,-0.714L0.4,-0.714L0.675,-0L0.541,-0L0.474,-0.189L0.189,-0.189L0.122,-0L-0.007,-0L0.267,-0.714ZM0.223,-0.284L0.441,-0.284L0.334,-0.591L0.331,-0.591L0.223,-0.284Z" style="fill:white;fill-rule:nonzero;"/>
                            </g>
                            <g transform="matrix(30.0269,0,0,30.0269,55341.8,4654.79)">
                                <path d="M0.074,-0.714L0.25,-0.714L0.447,-0.155L0.449,-0.155L0.641,-0.714L0.815,-0.714L0.815,-0L0.696,-0L0.696,-0.551L0.694,-0.551L0.496,-0L0.393,-0L0.195,-0.551L0.193,-0.551L0.193,-0L0.074,-0L0.074,-0.714Z" style="fill:white;fill-rule:nonzero;"/>
                            </g>
                        </g>
                        <g transform="matrix(1.48499,0,0,2.91561,-69056,-12589.4)">
                            <g transform="matrix(330.058,0,0,333.333,39940,8261.95)">
                                <path d="M0.455,-0.302L0.243,-0.302L0.267,-0.374L0.219,-0.404L0.417,-0.404C0.424,-0.404 0.43,-0.403 0.433,-0.4C0.436,-0.397 0.437,-0.394 0.438,-0.391C0.439,-0.387 0.438,-0.383 0.437,-0.378L0.527,-0.38C0.536,-0.381 0.543,-0.383 0.548,-0.386C0.553,-0.388 0.556,-0.391 0.559,-0.394C0.562,-0.397 0.564,-0.401 0.565,-0.406L0.597,-0.504L0.029,-0.504L0.143,-0.432L0.031,-0.094C0.026,-0.094 0.022,-0.093 0.017,-0.09C0.013,-0.088 0.009,-0.085 0.005,-0.081C0.001,-0.076 -0.002,-0.07 -0.005,-0.062L-0.025,-0L0.433,-0L0.465,-0.098C0.467,-0.103 0.468,-0.108 0.467,-0.112C0.466,-0.115 0.463,-0.119 0.46,-0.122C0.456,-0.125 0.449,-0.126 0.439,-0.126L0.355,-0.126C0.354,-0.121 0.351,-0.116 0.348,-0.113C0.344,-0.11 0.34,-0.107 0.337,-0.106C0.333,-0.103 0.328,-0.102 0.323,-0.102L0.177,-0.102L0.211,-0.202L0.275,-0.202C0.282,-0.202 0.288,-0.201 0.291,-0.198C0.294,-0.195 0.295,-0.192 0.296,-0.189C0.297,-0.185 0.296,-0.181 0.295,-0.176L0.385,-0.178C0.394,-0.179 0.401,-0.181 0.406,-0.184C0.411,-0.186 0.414,-0.189 0.417,-0.192C0.42,-0.195 0.422,-0.199 0.423,-0.204L0.455,-0.302Z" style="fill:white;fill-rule:nonzero;"/>
                            </g>
                            <g transform="matrix(330.058,0,0,333.333,40116.9,8261.95)">
                                <path d="M0.066,-0.202L0.354,-0.202L0.387,-0.302L0.098,-0.302L0.066,-0.202Z" style="fill:white;fill-rule:nonzero;"/>
                            </g>
                            <g transform="matrix(330.058,0,0,333.333,40249.6,8261.95)">
                                <path d="M0.32,-0.122L0.32,-0.092C0.312,-0.091 0.306,-0.089 0.301,-0.086C0.296,-0.083 0.293,-0.079 0.291,-0.076C0.288,-0.072 0.287,-0.068 0.286,-0.064L0.264,-0L0.462,-0L0.484,-0.068C0.486,-0.073 0.487,-0.077 0.486,-0.08C0.485,-0.083 0.484,-0.086 0.481,-0.089C0.478,-0.092 0.473,-0.093 0.466,-0.094L0.464,-0.46C0.464,-0.467 0.463,-0.474 0.46,-0.481C0.457,-0.486 0.454,-0.491 0.449,-0.496C0.444,-0.5 0.436,-0.502 0.426,-0.502L0.126,-0.502L0.24,-0.432L0.02,-0.094C0.015,-0.094 0.011,-0.093 0.006,-0.091C0.002,-0.09 -0.002,-0.087 -0.006,-0.084C-0.01,-0.081 -0.013,-0.075 -0.016,-0.068L-0.038,-0L0.162,-0L0.182,-0.064C0.184,-0.069 0.185,-0.073 0.184,-0.077C0.183,-0.08 0.182,-0.084 0.179,-0.087C0.176,-0.09 0.171,-0.091 0.164,-0.092L0.184,-0.122L0.32,-0.122ZM0.322,-0.236L0.256,-0.236L0.322,-0.338L0.322,-0.236Z" style="fill:white;fill-rule:nonzero;"/>
                            </g>
                            <g transform="matrix(330.058,0,0,333.333,40426.5,8261.95)">
                                <path d="M0.498,-0.504L0.29,-0.504C0.257,-0.504 0.231,-0.499 0.21,-0.488C0.189,-0.477 0.173,-0.465 0.161,-0.452C0.147,-0.437 0.137,-0.419 0.13,-0.4L0.034,-0.104C0.029,-0.085 0.028,-0.067 0.032,-0.052C0.034,-0.045 0.037,-0.039 0.041,-0.033C0.045,-0.027 0.051,-0.022 0.058,-0.017C0.065,-0.012 0.074,-0.008 0.085,-0.005C0.096,-0.002 0.109,-0 0.124,-0L0.432,-0L0.52,-0.274L0.256,-0.274L0.356,-0.214L0.32,-0.1L0.202,-0.1C0.195,-0.1 0.19,-0.101 0.187,-0.103C0.184,-0.105 0.183,-0.108 0.182,-0.111C0.181,-0.114 0.182,-0.117 0.184,-0.122L0.266,-0.374L0.214,-0.402L0.418,-0.402C0.423,-0.402 0.426,-0.401 0.429,-0.399C0.432,-0.398 0.434,-0.395 0.435,-0.392C0.436,-0.389 0.436,-0.384 0.434,-0.378L0.518,-0.378C0.525,-0.378 0.531,-0.379 0.537,-0.381C0.542,-0.382 0.547,-0.385 0.552,-0.388C0.557,-0.391 0.56,-0.396 0.562,-0.402L0.58,-0.452L0.498,-0.504Z" style="fill:white;fill-rule:nonzero;"/>
                            </g>
                            <g transform="matrix(330.058,0,0,333.333,40606.4,8261.95)">
                                <path d="M0.267,-0.384L0.217,-0.412L0.275,-0.412C0.282,-0.412 0.288,-0.414 0.293,-0.417C0.298,-0.42 0.302,-0.423 0.305,-0.426C0.308,-0.43 0.311,-0.435 0.313,-0.44L0.333,-0.504L0.025,-0.504L0.141,-0.434L0.031,-0.094C0.026,-0.094 0.021,-0.093 0.016,-0.09C0.012,-0.088 0.008,-0.085 0.004,-0.081C-0.001,-0.077 -0.004,-0.071 -0.007,-0.064L-0.027,-0L0.429,-0L0.461,-0.102C0.462,-0.106 0.462,-0.11 0.461,-0.113C0.46,-0.116 0.457,-0.119 0.454,-0.122C0.451,-0.124 0.445,-0.125 0.437,-0.126L0.349,-0.126C0.347,-0.121 0.345,-0.117 0.342,-0.114C0.339,-0.111 0.336,-0.108 0.331,-0.105C0.326,-0.102 0.32,-0.101 0.313,-0.1L0.175,-0.1L0.267,-0.384Z" style="fill:white;fill-rule:nonzero;"/>
                            </g>
                            <g transform="matrix(330.058,0,0,333.333,40779,8261.95)">
                                <path d="M0.455,-0.302L0.243,-0.302L0.267,-0.374L0.219,-0.404L0.417,-0.404C0.424,-0.404 0.43,-0.403 0.433,-0.4C0.436,-0.397 0.437,-0.394 0.438,-0.391C0.439,-0.387 0.438,-0.383 0.437,-0.378L0.527,-0.38C0.536,-0.381 0.543,-0.383 0.548,-0.386C0.553,-0.388 0.556,-0.391 0.559,-0.394C0.562,-0.397 0.564,-0.401 0.565,-0.406L0.597,-0.504L0.029,-0.504L0.143,-0.432L0.031,-0.094C0.026,-0.094 0.022,-0.093 0.017,-0.09C0.013,-0.088 0.009,-0.085 0.005,-0.081C0.001,-0.076 -0.002,-0.07 -0.005,-0.062L-0.025,-0L0.433,-0L0.465,-0.098C0.467,-0.103 0.468,-0.108 0.467,-0.112C0.466,-0.115 0.463,-0.119 0.46,-0.122C0.456,-0.125 0.449,-0.126 0.439,-0.126L0.355,-0.126C0.354,-0.121 0.351,-0.116 0.348,-0.113C0.344,-0.11 0.34,-0.107 0.337,-0.106C0.333,-0.103 0.328,-0.102 0.323,-0.102L0.177,-0.102L0.211,-0.202L0.275,-0.202C0.282,-0.202 0.288,-0.201 0.291,-0.198C0.294,-0.195 0.295,-0.192 0.296,-0.189C0.297,-0.185 0.296,-0.181 0.295,-0.176L0.385,-0.178C0.394,-0.179 0.401,-0.181 0.406,-0.184C0.411,-0.186 0.414,-0.189 0.417,-0.192C0.42,-0.195 0.422,-0.199 0.423,-0.204L0.455,-0.302Z" style="fill:white;fill-rule:nonzero;"/>
                            </g>
                        </g>
                    </g>
                    <g transform="matrix(0.290216,0,0,0.271388,22906.1,7438.04)">
                        <g transform="matrix(1,0,0,1,1051.38,798.459)">
                            <path d="M0,-12.551C-1.891,-8.249 -4.023,-4.061 -6.396,0C-4.924,-3.135 -2.843,-7.234 0,-12.551" style="fill:white;fill-rule:nonzero;"/>
                        </g>
                        <g transform="matrix(1,0,0,1,1085.44,496.086)">
                            <path d="M0,473.44C-52.183,510.318 -120.127,538.44 -206.663,540.229C-178.427,548.592 -148.934,550.09 -120.229,547.374C-23.744,538.301 64.036,481.866 66.853,480.052C-171.434,686.803 -412.044,529.29 -433.11,514.709L-433.135,514.709C-427.272,522.412 -420.584,529.887 -412.996,537.07C-412.983,537.082 -412.97,537.095 -412.945,537.108C-373.034,574.9 -311.193,608.301 -217.779,631.067C-430.077,611.549 -525.914,500.407 -567.945,393.123C-569.227,389.836 -570.47,386.562 -571.651,383.288L-571.651,383.275L-571.79,382.894L-572.336,381.359L-572.336,381.333L-572.349,381.333L-572.349,381.321L-572.793,380.077C-593.529,321.625 -598.77,276.155 -598.77,276.155C-603.719,295.28 -606.917,313.846 -608.77,331.638C-620.001,439.278 -581.917,518.605 -581.422,519.684C-583.58,517.323 -752.463,334.341 -680.966,131.447C-617.831,-47.69 -469.303,-64.048 -469.303,-64.048C-525.597,-18.337 -515.826,71.282 -515.826,71.282C-506.714,62.538 -497.501,54.797 -488.275,47.475C-390.242,-30.393 -305.952,-38.515 -305.952,-38.515C-390.978,-45.825 -451.942,-11.066 -464.201,-2.259C-465.001,-1.688 -465.559,-1.32 -465.673,-1.231C-448.96,-52.081 -374.353,-99.632 -374.353,-99.632C-573.706,-176.447 -749.608,-8.299 -751.841,-6.155C-686.13,-129.772 -523.643,-189.632 -376.942,-202.018C-306.409,-207.982 -239.518,-202.957 -188.795,-188.769C-137.335,-174.378 -92.868,-156.929 -56.193,-138.414C-53.896,-137.259 -51.701,-136.079 -49.467,-134.937C-32.234,-125.165 17.665,-91.853 55.838,-19.949L56.993,-17.69C56.993,-17.69 56.993,-17.678 57.005,-17.639C57.424,-16.51 63.566,0.241 70.711,20.812C76.739,38.135 83.477,58.16 88.109,73.82C88.122,73.909 88.16,73.985 88.173,74.061C91.193,75.673 94.036,77.335 96.713,79.036C160.457,119.594 131.561,187.412 63.731,267.488C63.731,267.488 63.63,238.465 61.092,211.384C59.454,193.909 48.795,178.579 33.033,170.851C-2.64,153.389 -71.586,121.929 -128.109,109.988C-134.023,108.744 -139.797,107.703 -145.381,106.917C-163.211,105.863 -175.152,106.333 -182.995,107.221C-186.358,107.856 -189.683,108.592 -193.008,109.429C-196.333,110.229 -200.965,112.031 -209.378,115.775C-210.191,116.142 -210.977,116.549 -211.777,116.942C-215.673,118.909 -219.493,121.079 -223.198,123.401C-226.853,125.711 -230.419,128.198 -233.845,130.851C-245.736,140.089 -256.079,151.219 -264.366,163.846C-278.249,185.001 -286.422,210.267 -286.625,237.424C-286.638,237.78 -286.638,238.148 -286.638,238.503C-286.638,238.896 -286.638,239.277 -286.625,239.658C-286.638,240.026 -286.625,240.407 -286.599,240.775C-286.599,240.851 -286.599,240.914 -286.625,240.99C-286.625,241.13 -286.625,241.282 -286.599,241.397C-286.587,242.374 -286.574,243.338 -286.511,244.303C-286.473,245.127 -286.447,245.927 -286.384,246.739C-286.333,247.843 -286.244,248.935 -286.155,250.026C-286.028,251.638 -285.863,253.237 -285.673,254.823C-285.673,254.823 -285.673,254.861 -285.648,254.95C-285.546,255.749 -284.886,260.254 -283.846,266.003C-283.617,267.183 -283.351,268.351 -283.084,269.506C-282.805,270.661 -282.526,271.828 -282.221,272.983C-282.196,273.046 -282.183,273.122 -282.17,273.186C-281.942,274.138 -281.663,275.064 -281.396,276.003C-280.686,278.503 -279.899,280.99 -279.061,283.414C-278.731,284.328 -278.389,285.242 -278.046,286.155C-277.361,288.046 -276.599,289.937 -275.8,291.777C-275.61,292.272 -275.394,292.78 -275.165,293.275C-274.937,293.795 -274.708,294.29 -274.48,294.798C-274.214,295.407 -273.934,296.016 -273.63,296.625C-272.653,298.732 -271.599,300.8 -270.495,302.843C-270.051,303.668 -269.607,304.468 -269.15,305.293C-268.985,305.559 -268.846,305.826 -268.693,306.105C-268.236,306.904 -267.767,307.691 -267.297,308.478C-266.498,309.823 -265.673,311.13 -264.848,312.412C-264.214,313.376 -263.566,314.341 -262.932,315.28C-262.17,316.397 -261.384,317.488 -260.584,318.579C-260.077,319.277 -259.556,319.975 -259.049,320.661C-258.516,321.358 -258.008,322.031 -257.462,322.716C-257.411,322.767 -257.361,322.831 -257.335,322.894C-256.016,324.582 -254.62,326.219 -253.211,327.831C-252.818,328.3 -252.437,328.744 -251.993,329.214C-251.333,329.963 -250.648,330.711 -249.95,331.447C-249.873,331.524 -249.785,331.638 -249.683,331.727C-249.049,332.425 -248.376,333.11 -247.716,333.782C-247.208,334.328 -246.688,334.836 -246.168,335.343C-245.939,335.572 -245.711,335.8 -245.47,336.029C-244.785,336.701 -244.087,337.361 -243.389,338.008C-242.411,338.935 -241.384,339.848 -240.381,340.749C-239.518,341.498 -238.642,342.247 -237.767,342.97C-236.967,343.643 -236.193,344.277 -235.368,344.925C-234.772,345.42 -234.15,345.902 -233.541,346.359C-232.906,346.866 -232.259,347.348 -231.599,347.831C-231.409,347.983 -231.193,348.135 -230.977,348.288C-230.013,349.011 -229.036,349.709 -228.046,350.381C-227.945,350.458 -227.818,350.546 -227.716,350.61C-226.587,351.397 -225.457,352.158 -224.315,352.881C-203.046,366.638 -177.703,374.62 -150.521,374.62C-149.137,374.62 -147.754,374.607 -146.409,374.544C-146.028,374.544 -145.647,374.519 -145.279,374.506C-144.163,374.48 -143.084,374.417 -141.993,374.354C-140.571,374.265 -139.175,374.151 -137.779,374.024C-136.561,373.922 -135.368,373.795 -134.175,373.643C-133.655,373.579 -133.16,373.529 -132.627,373.453C-131.701,373.326 -130.787,373.199 -129.886,373.059C-129.036,372.932 -128.198,372.793 -127.386,372.653C-126.523,372.526 -125.685,372.361 -124.861,372.209C-124.036,372.044 -123.198,371.879 -122.373,371.701C-121.701,371.562 -121.028,371.409 -120.343,371.257C-119.137,370.991 -117.919,370.699 -116.713,370.381C-115.787,370.14 -114.861,369.899 -113.934,369.62C-112.678,369.303 -111.434,368.922 -110.229,368.554C-109.645,368.376 -109.074,368.199 -108.528,368.021C-106.574,367.387 -104.619,366.714 -102.729,366.003C-102.107,365.762 -101.472,365.534 -100.863,365.28C-98.553,364.366 -96.256,363.402 -93.997,362.361C-93.046,361.942 -92.119,361.511 -91.193,361.041C-87.221,359.125 -83.363,357.019 -79.619,354.709C-78.921,354.303 -78.223,353.871 -77.551,353.427C-76.117,352.513 -74.695,351.587 -73.325,350.61C-72.449,350.026 -71.586,349.417 -70.723,348.795C-70.063,348.326 -69.404,347.831 -68.756,347.323C-68.096,346.841 -67.449,346.346 -66.815,345.838C-65.761,345.039 -64.721,344.201 -63.706,343.338C-62.855,342.653 -62.043,341.942 -61.231,341.244C-60.939,340.991 -60.66,340.762 -60.393,340.496C-59.531,339.76 -58.693,338.998 -57.868,338.199C-56.878,337.31 -55.939,336.397 -54.987,335.445C-54.099,334.582 -53.223,333.681 -52.335,332.793C-52.31,332.729 -52.259,332.678 -52.195,332.628C-51.409,331.803 -50.635,330.952 -49.873,330.115C-49.581,329.823 -49.328,329.506 -49.048,329.214C-48.3,328.389 -47.576,327.564 -46.853,326.701C-45.14,324.683 -43.477,322.602 -41.878,320.496C-41.079,319.442 -40.292,318.376 -39.518,317.272C-33.972,309.48 -29.239,301.079 -25.419,292.183C-28.972,303.3 -32.843,313.465 -36.992,322.716C-91.891,445.217 -221.942,399.975 -225.863,398.579C-23.388,510.775 145.483,289.595 147.132,287.424C146.675,288.706 105.457,398.947 0,473.44M140.089,282.044C138.985,283.491 112.64,317.881 68.35,352.526C28.147,383.96 -35.127,421.435 -108.287,421.435C-123.883,421.435 -139.416,419.734 -154.823,416.371C-112.056,413.554 -59.404,394.519 -28.858,326.346C-24.53,316.714 -20.52,306.13 -16.929,294.886C-7.005,267.945 -15.571,233.046 -15.571,233.046C-15.571,233.046 -22.627,267.729 -33.477,288.706C-33.655,289.062 -33.845,289.404 -34.023,289.747C-34.036,289.772 -34.036,289.798 -34.061,289.823C-35.952,294.125 -38.084,298.313 -40.457,302.374C-40.457,302.399 -40.469,302.424 -40.482,302.437C-42.411,305.762 -44.505,308.998 -46.726,312.12C-47.399,313.084 -48.109,314.049 -48.921,315.128C-50.482,317.171 -52.043,319.125 -53.591,320.952C-54.226,321.714 -54.86,322.425 -55.546,323.186C-55.711,323.364 -55.876,323.541 -56.041,323.732L-56.167,323.871L-56.269,323.985L-56.421,324.138C-57.069,324.861 -57.729,325.584 -58.401,326.295C-58.617,326.498 -58.807,326.701 -58.998,326.917L-59.492,327.425L-61.142,329.074L-61.193,329.112L-61.244,329.163C-61.929,329.848 -62.843,330.749 -63.769,331.587L-64.023,331.815C-64.708,332.488 -65.406,333.123 -66.13,333.732L-66.396,333.96L-66.612,334.176C-66.662,334.227 -66.726,334.277 -66.789,334.328L-67.03,334.544L-67.437,334.887C-68.071,335.432 -68.668,335.952 -69.251,336.422L-69.429,336.574C-70.33,337.336 -71.244,338.072 -72.157,338.757L-72.246,338.833L-72.335,338.897C-72.868,339.328 -73.414,339.747 -73.972,340.153L-74.086,340.242L-74.213,340.331C-74.759,340.762 -75.317,341.181 -75.85,341.562C-76.828,342.26 -77.551,342.767 -78.223,343.224L-78.338,343.3L-78.452,343.376C-79.734,344.29 -81.117,345.178 -82.297,345.94L-82.36,345.978L-82.411,346.016C-82.944,346.359 -83.49,346.701 -84.061,347.031L-84.162,347.082L-84.251,347.145C-87.69,349.265 -91.307,351.244 -95.025,353.046L-95.102,353.084L-95.178,353.123C-95.901,353.478 -96.675,353.846 -97.551,354.227L-97.614,354.265L-97.69,354.29C-99.632,355.191 -101.739,356.079 -104.099,357.019L-104.175,357.044L-104.251,357.082C-104.569,357.209 -104.899,357.336 -105.216,357.463L-105.825,357.691C-107.475,358.3 -109.239,358.922 -111.244,359.569C-111.739,359.734 -112.259,359.899 -112.792,360.052L-112.855,360.077C-113.985,360.42 -115.051,360.749 -116.079,361.003L-116.282,361.054L-116.472,361.117C-117.234,361.346 -118.059,361.562 -118.921,361.79C-119.987,362.069 -121.092,362.336 -122.234,362.577L-122.614,362.666C-123.135,362.78 -123.642,362.894 -124.15,363.008L-124.188,363.008L-124.213,363.021C-124.873,363.161 -125.546,363.288 -126.218,363.427L-126.523,363.491L-126.942,363.567C-127.5,363.668 -128.071,363.782 -128.655,363.859L-128.756,363.884L-128.858,363.897C-129.607,364.024 -130.381,364.15 -131.168,364.277C-132.069,364.417 -132.932,364.531 -133.807,364.645C-134.137,364.696 -134.404,364.734 -134.683,364.76L-135.216,364.823C-136.358,364.975 -137.411,365.077 -138.49,365.166L-138.515,365.178L-138.553,365.178C-140.064,365.318 -141.333,365.42 -142.513,365.483C-143.554,365.546 -144.518,365.597 -145.457,365.623L-145.559,365.623L-146.015,365.648C-146.13,365.648 -146.257,365.661 -146.383,365.661L-146.574,365.661L-146.802,365.673C-148.033,365.724 -149.366,365.737 -150.495,365.737C-175.064,365.737 -198.909,358.706 -219.467,345.42L-219.493,345.394L-219.531,345.381C-220.457,344.785 -221.46,344.112 -222.615,343.326L-222.792,343.199L-222.818,343.173L-222.856,343.148L-223.021,343.034C-223.896,342.437 -224.772,341.815 -225.622,341.181L-225.724,341.105L-225.825,341.029C-225.914,340.965 -225.99,340.914 -226.066,340.851L-226.219,340.737L-226.333,340.661C-226.828,340.293 -227.424,339.861 -227.957,339.417L-228.071,339.341L-228.186,339.252C-228.757,338.82 -229.239,338.44 -229.67,338.085L-229.759,338.008L-229.861,337.932C-230.546,337.399 -231.231,336.841 -232.018,336.168L-232.043,336.143L-232.081,336.117C-232.881,335.458 -233.68,334.772 -234.467,334.087L-234.861,333.744C-235.711,332.983 -236.498,332.272 -237.247,331.562L-237.285,331.524L-237.323,331.498C-237.957,330.902 -238.592,330.305 -239.214,329.683L-239.277,329.633L-239.328,329.582C-239.505,329.417 -239.67,329.252 -239.835,329.074L-239.873,329.049L-239.937,328.985C-240.394,328.541 -240.825,328.123 -241.181,327.729L-241.346,327.564C-241.98,326.917 -242.564,326.321 -243.084,325.749L-243.427,325.369L-243.503,325.305C-244.125,324.658 -244.721,323.998 -245.305,323.338L-245.406,323.224L-245.508,323.11C-245.787,322.818 -246.054,322.513 -246.371,322.12L-246.434,322.057L-246.498,321.98C-247.513,320.813 -248.833,319.29 -250.051,317.742C-250.229,317.488 -250.419,317.247 -250.622,317.006C-250.977,316.549 -251.333,316.105 -251.675,315.635L-251.917,315.318L-252.183,314.975C-252.576,314.442 -252.983,313.897 -253.376,313.351C-254.01,312.488 -254.81,311.384 -255.559,310.28C-256.142,309.404 -256.764,308.491 -257.373,307.564C-258.313,306.117 -259.01,304.988 -259.632,303.935C-260.064,303.211 -260.495,302.501 -260.901,301.777L-260.939,301.727C-261.092,301.422 -261.257,301.13 -261.434,300.838L-261.434,300.825C-261.853,300.09 -262.247,299.366 -262.64,298.63C-263.757,296.587 -264.696,294.709 -265.546,292.881L-265.597,292.767L-265.66,292.653C-265.863,292.234 -266.079,291.777 -266.307,291.244L-266.333,291.194L-266.346,291.155L-266.587,290.622C-266.726,290.318 -266.866,290.013 -267.005,289.696L-267.031,289.633L-267.069,289.556C-267.221,289.227 -267.361,288.897 -267.488,288.579L-267.551,288.414L-267.627,288.237C-268.389,286.485 -269.074,284.759 -269.67,283.135L-269.696,283.034C-270.026,282.171 -270.343,281.308 -270.66,280.457C-271.447,278.16 -272.17,275.851 -272.818,273.579L-273.008,272.932C-273.173,272.336 -273.338,271.765 -273.465,271.257C-273.516,271.054 -273.566,270.8 -273.655,270.521C-273.896,269.595 -274.125,268.668 -274.341,267.742L-274.417,267.45C-274.658,266.397 -274.899,265.356 -275.089,264.353C-276.13,258.567 -276.752,254.277 -276.802,253.833L-276.891,253.16L-276.904,253.135C-277.056,251.803 -277.17,250.546 -277.272,249.328C-277.348,248.313 -277.437,247.285 -277.475,246.333L-277.488,246.193L-277.5,246.041C-277.538,245.534 -277.564,245.013 -277.577,244.506L-277.602,243.897L-277.615,243.808L-277.615,243.719C-277.665,242.97 -277.678,242.12 -277.691,241.282L-277.691,240.47L-277.703,240.165C-277.716,240.089 -277.716,240.026 -277.716,239.95L-277.703,239.645L-277.716,239.366C-277.729,239.074 -277.729,238.795 -277.729,238.503C-277.729,238.249 -277.729,237.995 -277.716,237.742L-277.716,237.488C-277.526,212.957 -270.33,189.176 -256.904,168.719C-249.201,156.967 -239.594,146.587 -228.363,137.868C-225.229,135.445 -221.891,133.097 -218.427,130.914C-214.911,128.706 -211.32,126.676 -207.767,124.886L-207.132,124.569C-206.65,124.328 -206.168,124.087 -205.686,123.871C-198.008,120.445 -193.566,118.706 -190.901,118.071L-190.85,118.059L-190.812,118.046C-187.741,117.272 -184.658,116.587 -181.637,116.016C-176.726,115.47 -170.876,115.191 -164.252,115.191C-158.769,115.191 -152.716,115.381 -146.244,115.762C-141.168,116.485 -135.673,117.462 -129.911,118.681C-74.518,130.381 -6.472,161.384 29.163,178.833C42.081,185.165 50.939,197.957 52.272,212.209C54.746,238.592 54.873,267.234 54.873,267.513L54.962,291.625L70.533,273.224C123.807,210.343 145.965,163.566 140.267,126.016C136.942,104.112 123.896,85.787 101.51,71.536C99.62,70.343 97.665,69.175 95.685,68.046C91.739,55 86.18,38.147 79.125,17.894C72.932,0.038 67.576,-14.67 65.901,-19.251L65.901,-19.835L64.937,-21.738L63.782,-23.997L63.744,-24.048L63.718,-24.112C46.84,-55.901 25.901,-83.845 1.498,-107.17C-18.883,-126.637 -36.421,-137.767 -45.051,-142.665L-45.228,-142.754L-45.393,-142.843C-46.32,-143.325 -47.234,-143.794 -48.16,-144.277C-49.48,-144.975 -50.812,-145.66 -52.17,-146.345C-91.789,-166.345 -136.942,-183.503 -186.371,-197.323C-223.896,-207.817 -269.835,-213.363 -319.252,-213.363C-338.414,-213.363 -358.059,-212.526 -377.666,-210.876C-457.996,-204.086 -534.366,-184.366 -598.554,-153.82C-634.214,-136.853 -665.635,-116.688 -691.955,-93.883C-720.598,-69.074 -743.377,-40.964 -759.659,-10.33L-785.725,38.731L-745.661,0.254C-744.455,-0.901 -715.598,-28.401 -668.389,-55.914C-625.394,-80.964 -558.161,-110.838 -482.006,-110.838C-451.93,-110.838 -422.285,-106.193 -393.655,-97.03C-416.955,-79.949 -461.117,-43.464 -474.087,-4.01L-483.161,23.63L-460.356,5.914L-460.28,5.85C-459.975,5.647 -459.544,5.356 -459.011,4.975C-458.63,4.696 -431.244,-14.619 -384.975,-24.683C-414.62,-12.17 -453.021,8.147 -493.77,40.521C-498.732,44.455 -503.275,48.186 -507.513,51.815C-507.361,43.541 -506.689,33.097 -504.798,21.739C-500.826,-2.246 -490.458,-35.393 -463.668,-57.157L-440.242,-76.18L-470.242,-72.881C-471.841,-72.703 -509.798,-68.274 -555.927,-41.129C-582.932,-25.254 -607.171,-4.835 -627.983,19.556C-653.922,49.95 -674.544,86.599 -689.316,128.49C-706.029,175.914 -711.219,226.168 -704.747,277.843C-699.57,319.125 -686.981,361.409 -667.298,403.529C-634.366,474.024 -592.628,520.572 -587.983,525.636L-549.772,567.336L-573.313,515.978L-573.338,515.94L-573.389,515.826C-574.404,513.656 -583.554,493.719 -591.156,462.184C-598.25,432.755 -605.521,386.371 -599.912,332.564C-599.582,329.468 -599.227,326.384 -598.821,323.3C-594.811,340.09 -589.125,360.496 -581.206,382.856C-581.206,382.856 -579.963,386.486 -578.541,390.204C-577.818,392.133 -577.044,394.163 -576.194,396.346C-551.295,459.899 -512.932,512.26 -462.158,552.006C-399.226,601.257 -317.272,630.839 -218.566,639.912C-181.726,642.273 -141.764,623.529 -140.597,622.971C-141.815,623.123 -181.485,628.174 -215.648,622.438C-280.914,606.537 -334.226,584.405 -374.772,556.448C-370.686,558.25 -366.435,560.052 -362.031,561.841C-308.3,583.643 -253.579,594.709 -199.391,594.709C-101.396,594.709 -9.848,558.389 72.703,486.765C113.871,452.907 119.582,423.719 119.582,423.719C119.582,423.719 98.465,448.783 62.069,472.577C61.98,472.628 61.853,472.717 61.675,472.831C61.548,472.92 61.409,473.009 61.282,473.085C51.789,479.087 -31.206,530.09 -121.028,538.529C-121.739,538.592 -122.437,538.656 -123.135,538.719C-77.005,527.806 -34.061,508.415 5.152,480.699C60.876,441.333 98.617,392.107 120.47,357.742C144.975,319.201 155.432,290.686 155.533,290.407L174.746,236.447L140.089,282.044Z" style="fill:white;fill-rule:nonzero;"/>
                        </g>
                        <g transform="matrix(1,0,0,1,1051.96,785.808)">
                            <path d="M0,-1.016C-0.178,-0.661 -0.368,-0.318 -0.546,0.025C-0.381,-0.331 -0.228,-0.686 -0.076,-1.041L0,-1.016Z" style="fill:white;fill-rule:nonzero;"/>
                        </g>
                        <g transform="matrix(1,0,0,1,1170.7,572.773)">
                            <path d="M0,127.272C-4.099,104.937 -18.769,85.381 -39.378,75.292C-70.241,60.178 -121.345,36.853 -170.229,22.183C-174.175,21.054 -178.135,19.937 -182.107,18.845C-165,15.114 -138.769,10.013 -109.01,6.409C-78.579,2.729 -57.119,0.901 -44.454,0C-26.637,7.297 -10.952,14.975 -1.98,22.183C1.409,24.899 3.68,26.713 5.178,27.906C5.19,27.919 5.203,27.932 5.216,27.932C6.485,28.947 7.208,29.505 7.576,29.785C7.779,29.937 7.881,30.013 7.932,30.051C7.919,30.026 7.906,30.013 7.881,29.988C20.66,40.165 23.579,49.823 24.607,56.536C27.284,74.125 19.023,97.818 0,127.272" style="fill:white;fill-rule:nonzero;"/>
                        </g>
                        <g transform="matrix(1,0,0,1,1047.29,491.149)">
                            <path d="M0,11.954C0,11.954 -0.444,12.347 -1.269,13.045C-8.388,18.934 -43.858,46.142 -72.081,27.538C-103.592,6.738 -88.655,-34.188 -88.655,-34.188L-58.947,-30.115C-58.947,-30.115 -64.746,-3.313 -50.736,3.731C-36.713,10.787 -20.013,0.266 -20.013,0.266L-9.315,6.51L0,11.954Z" style="fill:white;fill-rule:nonzero;"/>
                        </g>
                        <g transform="matrix(1,0,0,1,1122.51,807.825)">
                            <path d="M0,-313.046L0,-313.033C-1.193,-312.691 -2.424,-312.411 -3.693,-312.158C-4.632,-311.98 -5.596,-311.815 -6.586,-311.675C-9.543,-311.282 -12.652,-311.066 -15.901,-311.066C-16.802,-311.066 -17.69,-311.092 -18.604,-311.117C-19.251,-311.142 -19.911,-311.155 -20.571,-311.206C-21.053,-311.231 -21.561,-311.269 -22.056,-311.307C-22.754,-311.358 -23.452,-311.409 -24.15,-311.485C-24.721,-311.536 -25.279,-311.587 -25.863,-311.663C-26.37,-311.714 -26.891,-311.764 -27.398,-311.84C-27.64,-311.879 -27.855,-311.891 -28.084,-311.929C-28.706,-312.018 -29.34,-312.107 -29.962,-312.196C-30.622,-312.297 -31.307,-312.411 -31.98,-312.538C-32.462,-312.615 -32.944,-312.703 -33.452,-312.78C-38.211,-313.668 -43.109,-314.886 -48.046,-316.384C-50.102,-317.031 -52.157,-317.703 -54.213,-318.439C-58.338,-319.899 -62.487,-321.587 -66.574,-323.465C-68.63,-324.391 -70.673,-325.381 -72.69,-326.422C-73.718,-326.929 -74.708,-327.475 -75.723,-328.008C-76.726,-328.541 -77.716,-329.099 -78.718,-329.67C-79.721,-330.229 -80.698,-330.8 -81.688,-331.384C-83.058,-332.183 -84.416,-333.033 -85.749,-333.896C-86.815,-334.569 -87.906,-335.28 -88.959,-336.003C-89.975,-336.675 -90.99,-337.386 -91.992,-338.097C-92.234,-338.274 -92.5,-338.452 -92.716,-338.604C-93.807,-339.404 -94.899,-340.203 -95.952,-341.003C-97.779,-342.399 -99.531,-343.833 -101.295,-345.305C-102.589,-346.409 -103.858,-347.538 -105.114,-348.706C-105.736,-349.277 -106.371,-349.848 -106.98,-350.432C-107.602,-351.028 -108.198,-351.612 -108.795,-352.208C-109.886,-353.376 -110.99,-354.531 -112.094,-355.66C-112.652,-356.231 -113.211,-356.79 -113.782,-357.348C-114.34,-357.907 -114.911,-358.452 -115.482,-359.011L-115.559,-359.087C-116.066,-359.569 -116.574,-360.064 -117.094,-360.546C-118.642,-361.993 -120.216,-363.427 -121.789,-364.81L-121.802,-364.81C-123.211,-366.054 -124.632,-367.259 -126.079,-368.452C-126.789,-369.049 -127.513,-369.645 -128.236,-370.229C-128.972,-370.813 -129.696,-371.384 -130.419,-371.955C-131.155,-372.526 -131.891,-373.084 -132.627,-373.643C-133.769,-374.531 -134.937,-375.381 -136.104,-376.244C-136.98,-376.879 -137.868,-377.5 -138.744,-378.122C-139.404,-378.592 -140.076,-379.061 -140.736,-379.505C-142.729,-380.876 -144.734,-382.209 -146.751,-383.516C-148.592,-384.683 -150.432,-385.838 -152.272,-386.942C-155.051,-388.617 -157.83,-390.216 -160.609,-391.764C-162.462,-392.78 -164.315,-393.769 -166.168,-394.747L-166.18,-394.747C-168.033,-395.711 -169.886,-396.637 -171.726,-397.564C-172.716,-398.046 -173.693,-398.516 -174.67,-398.985C-182.513,-402.716 -190.241,-405.965 -197.653,-408.782C-198.579,-409.138 -199.505,-409.48 -200.406,-409.81L-200.419,-409.81C-201.333,-410.153 -202.246,-410.483 -203.148,-410.813C-204.048,-411.13 -204.95,-411.447 -205.838,-411.752L-205.851,-411.752C-206.739,-412.069 -207.615,-412.374 -208.503,-412.678C-211.13,-413.567 -213.719,-414.404 -216.219,-415.178C-220.952,-416.65 -225.406,-417.932 -229.544,-419.036C-230.444,-419.29 -231.333,-419.518 -232.208,-419.734C-233.071,-419.962 -233.922,-420.178 -234.759,-420.394C-236.016,-420.698 -237.234,-420.99 -238.401,-421.27C-238.427,-421.282 -238.452,-421.295 -238.477,-421.295C-239.226,-421.473 -239.962,-421.638 -240.673,-421.802C-240.939,-421.866 -241.206,-421.929 -241.472,-421.993C-243.325,-422.399 -245.038,-422.78 -246.625,-423.11L-246.637,-423.11C-247.107,-423.211 -247.564,-423.3 -248.008,-423.389C-248.452,-423.478 -248.884,-423.579 -249.302,-423.655C-249.721,-423.732 -250.14,-423.808 -250.521,-423.884C-250.927,-423.96 -251.295,-424.036 -251.676,-424.099C-251.688,-424.112 -251.714,-424.125 -251.726,-424.125C-252.018,-424.176 -252.297,-424.226 -252.564,-424.277C-253.643,-424.468 -254.594,-424.632 -255.406,-424.772C-256.028,-424.886 -256.549,-424.962 -256.993,-425.039C-257.107,-425.051 -257.208,-425.077 -257.31,-425.089C-257.411,-425.102 -257.5,-425.115 -257.589,-425.127C-258.046,-425.191 -258.376,-425.242 -258.554,-425.267C-258.579,-425.267 -258.604,-425.28 -258.63,-425.28L-258.668,-425.28C-258.643,-425.254 -258.604,-425.242 -258.541,-425.204C-258.516,-425.191 -258.49,-425.178 -258.452,-425.153C-258.414,-425.127 -258.376,-425.115 -258.325,-425.089C-255.66,-423.617 -239.455,-414.671 -222.005,-403.084C-221.993,-403.072 -221.993,-403.059 -221.967,-403.046C-221.942,-403.033 -221.929,-403.021 -221.904,-403.008C-206.092,-392.5 -189.29,-379.848 -180.673,-368.668L-180.673,-368.63C-180.762,-368.554 -181.282,-368.135 -182.094,-367.424C-182.272,-367.272 -182.475,-367.094 -182.678,-366.904C-182.894,-366.714 -183.109,-366.511 -183.35,-366.282C-183.693,-365.965 -184.074,-365.597 -184.48,-365.203C-184.62,-365.064 -184.772,-364.924 -184.911,-364.772L-185.419,-364.277C-185.571,-364.099 -185.736,-363.934 -185.927,-363.757L-185.927,-363.744C-186.092,-363.566 -186.269,-363.389 -186.447,-363.198C-186.587,-363.059 -186.726,-362.907 -186.853,-362.754C-187.259,-362.323 -187.665,-361.853 -188.109,-361.371C-188.287,-361.155 -188.477,-360.939 -188.68,-360.711C-188.871,-360.483 -189.061,-360.254 -189.252,-360.026C-189.455,-359.785 -189.645,-359.556 -189.848,-359.315L-189.848,-359.302C-190.089,-359.011 -190.33,-358.706 -190.584,-358.389L-190.584,-358.376C-190.825,-358.059 -191.079,-357.742 -191.32,-357.412C-191.828,-356.752 -192.31,-356.079 -192.805,-355.368C-193.198,-354.81 -193.592,-354.226 -193.972,-353.63C-194.48,-352.83 -194.988,-352.018 -195.495,-351.168C-197.221,-348.198 -198.782,-344.924 -199.962,-341.371C-202.5,-333.769 -203.287,-324.937 -200.178,-315.356C-199.924,-314.594 -199.658,-313.833 -199.366,-313.071C-199.264,-312.818 -199.163,-312.564 -199.048,-312.297C-199.048,-312.297 -203.198,-311.726 -209.873,-309.988C-210.267,-309.886 -210.673,-309.772 -211.079,-309.67C-213.122,-309.112 -215.381,-308.452 -217.805,-307.665C-218.769,-307.361 -219.759,-307.031 -220.787,-306.675C-221.802,-306.32 -222.843,-305.952 -223.922,-305.559C-224.366,-305.394 -224.835,-305.216 -225.292,-305.038C-225.394,-305 -225.495,-304.975 -225.597,-304.924C-226.142,-304.721 -226.688,-304.505 -227.247,-304.29C-228.338,-303.858 -229.429,-303.401 -230.546,-302.932C-231.117,-302.691 -231.688,-302.437 -232.272,-302.196C-232.335,-302.158 -232.386,-302.132 -232.462,-302.107C-233.173,-301.79 -233.884,-301.472 -234.594,-301.142C-234.873,-301.003 -235.165,-300.889 -235.444,-300.749C-235.648,-300.66 -235.838,-300.571 -236.028,-300.483C-237.513,-299.772 -239.036,-299.023 -240.559,-298.236C-240.901,-298.059 -241.257,-297.881 -241.599,-297.703C-241.675,-297.653 -241.752,-297.615 -241.84,-297.576C-241.853,-297.564 -241.866,-297.551 -241.878,-297.551C-242.653,-297.132 -243.427,-296.713 -244.214,-296.282C-245.419,-295.609 -246.625,-294.924 -247.843,-294.201C-247.881,-294.188 -247.906,-294.163 -247.932,-294.15C-249.15,-293.427 -250.381,-292.665 -251.612,-291.878C-252.107,-291.561 -252.627,-291.231 -253.135,-290.901C-254.15,-290.229 -255.153,-289.531 -256.168,-288.833C-257.094,-288.186 -258.021,-287.526 -258.934,-286.84C-259.023,-286.777 -259.112,-286.701 -259.201,-286.637C-259.366,-286.523 -259.544,-286.396 -259.696,-286.269C-261.066,-285.241 -262.411,-284.188 -263.757,-283.084C-264.734,-282.272 -265.711,-281.447 -266.676,-280.609C-267.031,-280.292 -267.399,-279.975 -267.754,-279.645C-268.363,-279.099 -268.985,-278.528 -269.594,-277.957C-270.584,-277.031 -271.561,-276.079 -272.539,-275.102C-272.868,-274.772 -273.198,-274.455 -273.516,-274.112C-273.947,-273.655 -274.366,-273.224 -274.797,-272.767C-275.356,-272.158 -275.914,-271.548 -276.472,-270.927C-277.12,-270.216 -277.742,-269.493 -278.376,-268.757C-279.302,-267.653 -280.229,-266.536 -281.143,-265.381C-281.434,-265 -281.739,-264.607 -282.044,-264.213C-282.488,-263.63 -282.932,-263.033 -283.363,-262.424C-283.808,-261.828 -284.239,-261.219 -284.67,-260.609C-285.242,-259.785 -285.813,-258.947 -286.371,-258.109C-286.65,-257.678 -286.929,-257.246 -287.209,-256.828C-287.475,-256.396 -287.754,-255.965 -288.021,-255.52C-288.287,-255.089 -288.554,-254.658 -288.82,-254.213C-289.087,-253.769 -289.353,-253.325 -289.607,-252.868C-289.861,-252.424 -290.127,-251.98 -290.381,-251.51C-290.66,-251.028 -290.94,-250.533 -291.206,-250.038C-291.599,-249.29 -291.993,-248.541 -292.386,-247.767C-294.404,-243.833 -296.244,-239.645 -297.856,-235.229C-298.237,-234.163 -298.604,-233.097 -298.972,-232.018C-301.828,-223.427 -303.858,-213.96 -304.861,-203.49C-304.861,-203.49 -289.505,-223.96 -265.724,-238.109C-256.65,-243.515 -246.358,-247.982 -235.191,-250.064C-226.384,-251.688 -217.043,-251.828 -207.373,-249.708C-207.234,-249.683 -207.094,-249.645 -206.955,-249.62C-206.244,-249.455 -205.533,-249.29 -204.835,-249.099L-203.655,-248.795C-202.906,-248.592 -202.158,-248.376 -201.422,-248.135C-200.546,-247.856 -199.67,-247.576 -198.807,-247.272L-198.795,-247.259C-198.465,-247.145 -198.135,-247.018 -197.805,-246.904C-196.815,-246.536 -195.812,-246.155 -194.823,-245.724L-194.81,-245.724C-191.815,-244.48 -188.807,-243.008 -185.774,-241.257L-185.762,-241.257C-184.746,-240.673 -183.731,-240.064 -182.716,-239.429C-179.252,-237.5 -175.711,-235.191 -172.779,-233.16C-169.861,-231.13 -167.551,-229.391 -166.536,-228.617C-168.236,-228.947 -173.693,-229.315 -190.178,-229.188C-217.615,-228.96 -241.092,-220.939 -241.828,-220.698C-241.828,-220.685 -241.84,-220.685 -241.84,-220.685L-241.929,-220.647L-242.031,-220.609L-242.792,-220.317C-253.084,-216.447 -263.186,-211.358 -272.526,-205.356L-279.163,-200.876C-294.112,-189.493 -320.419,-161.104 -332.602,-133.718C-340.343,-115.14 -344.468,-95.165 -344.645,-74.759C-344.671,-74.15 -344.671,-73.629 -344.671,-73.236C-344.671,-72.893 -344.671,-72.475 -344.658,-71.992L-344.658,-70.749C-344.658,-70.368 -344.645,-69.924 -344.62,-69.391C-344.607,-68.49 -344.582,-67.487 -344.518,-66.421L-344.506,-66.206C-344.48,-65.47 -344.442,-64.657 -344.379,-63.744C-344.315,-62.373 -344.214,-61.117 -344.125,-60C-344.125,-60 -344.112,-59.886 -344.087,-59.657C-344.087,-59.594 -344.074,-59.518 -344.074,-59.454C-344.061,-59.378 -344.061,-59.289 -344.049,-59.2C-344.023,-58.997 -344.011,-58.769 -343.985,-58.502C-343.96,-58.325 -343.947,-58.134 -343.935,-57.931C-343.922,-57.855 -343.909,-57.754 -343.896,-57.665C-343.884,-57.475 -343.858,-57.284 -343.846,-57.081C-343.795,-56.7 -343.744,-56.294 -343.693,-55.85C-343.668,-55.558 -343.63,-55.254 -343.592,-54.949C-343.516,-54.327 -343.44,-53.655 -343.338,-52.931C-343.325,-52.83 -343.313,-52.728 -343.3,-52.627L-343.3,-52.576C-343.122,-51.294 -342.919,-49.86 -342.691,-48.325C-342.501,-47.043 -342.285,-45.711 -342.031,-44.302C-341.003,-38.287 -339.506,-31.155 -337.386,-23.997C-335.813,-18.705 -334.023,-14.048 -332.285,-10.114C-336.739,12.119 -338.478,42.754 -327.374,75.85C-326.815,77.526 -326.219,79.201 -325.597,80.889C-325.127,82.145 -324.632,83.401 -324.125,84.658C-323.96,85.089 -323.782,85.521 -323.605,85.939C-322.907,87.64 -322.183,89.328 -321.422,91.028C-320.94,92.094 -320.432,93.16 -319.937,94.226C-319.429,95.279 -318.896,96.345 -318.363,97.412L-318.363,97.424C-317.932,98.274 -317.488,99.125 -317.044,99.975L-317.044,99.988C-316.587,100.838 -316.13,101.701 -315.66,102.551C-315.432,102.983 -315.191,103.414 -314.95,103.845C-314.226,105.127 -313.49,106.422 -312.729,107.703C-311.841,109.214 -310.914,110.724 -309.95,112.221C-308.998,113.731 -308.008,115.229 -306.993,116.726C-296.485,132.247 -282.475,147.767 -264.023,162.754C-261.764,164.582 -259.455,166.396 -257.069,168.211C-255.876,169.112 -254.67,170.013 -253.44,170.914C-251.904,172.044 -250.356,173.16 -248.757,174.277C-244.01,177.627 -238.998,180.927 -233.757,184.201L-233.731,184.226C-273.668,174.683 -306.371,161.105 -333.122,145.013L-333.135,145.013C-333.135,145.013 -333.376,144.873 -333.833,144.594C-333.922,144.544 -334.011,144.48 -334.099,144.442L-334.353,144.277C-338.478,141.764 -342.462,139.201 -346.295,136.574C-346.726,136.269 -347.171,135.977 -347.602,135.673C-348.084,135.343 -348.566,135 -349.036,134.67C-349.379,134.429 -349.709,134.188 -350.039,133.947C-350.711,133.49 -351.384,133.008 -352.031,132.526C-353.351,131.574 -354.658,130.61 -355.952,129.632C-356.587,129.163 -357.209,128.681 -357.843,128.198C-358.313,127.843 -358.782,127.475 -359.252,127.107C-359.899,126.612 -360.534,126.104 -361.168,125.609C-361.32,125.483 -361.473,125.356 -361.625,125.229C-362.247,124.747 -362.856,124.252 -363.465,123.744C-363.706,123.554 -363.947,123.363 -364.188,123.16C-364.556,122.868 -364.924,122.564 -365.28,122.247C-365.356,122.196 -365.432,122.132 -365.508,122.069L-365.737,121.879C-366.092,121.599 -366.435,121.307 -366.777,121.003C-367.069,120.774 -367.361,120.521 -367.653,120.28C-367.754,120.178 -367.869,120.089 -367.97,119.988C-368.3,119.708 -368.643,119.417 -368.973,119.125C-369.023,119.087 -369.074,119.049 -369.112,118.998C-369.404,118.757 -369.683,118.516 -369.975,118.262C-370.584,117.741 -371.181,117.208 -371.777,116.663C-371.803,116.65 -371.815,116.625 -371.841,116.599C-371.866,116.587 -371.891,116.574 -371.904,116.536C-372.336,116.181 -372.754,115.8 -373.173,115.406C-373.579,115.051 -373.985,114.67 -374.379,114.315C-375.191,113.566 -375.978,112.83 -376.765,112.082C-377.361,111.523 -377.957,110.965 -378.541,110.381C-378.884,110.064 -379.214,109.734 -379.556,109.417L-380.546,108.427C-381.168,107.83 -381.777,107.208 -382.386,106.599C-382.513,106.472 -382.628,106.358 -382.742,106.231C-383.313,105.66 -383.884,105.064 -384.442,104.493C-384.658,104.277 -384.861,104.061 -385.064,103.845C-385.331,103.566 -385.61,103.274 -385.876,102.995L-386.333,102.5C-386.6,102.221 -386.866,101.942 -387.12,101.663C-387.183,101.612 -387.234,101.549 -387.285,101.498C-387.589,101.168 -387.894,100.838 -388.199,100.495C-388.82,99.835 -389.43,99.163 -390.026,98.49C-390.394,98.097 -390.749,97.691 -391.092,97.297C-391.346,97.031 -391.574,96.752 -391.815,96.485C-392.056,96.206 -392.31,95.914 -392.539,95.635C-392.653,95.521 -392.742,95.406 -392.843,95.305C-393.237,94.848 -393.63,94.391 -394.011,93.934C-394.074,93.871 -394.125,93.795 -394.188,93.731C-394.518,93.338 -394.848,92.957 -395.166,92.576C-395.292,92.424 -395.419,92.285 -395.534,92.132C-395.648,91.993 -395.775,91.853 -395.889,91.713C-396.003,91.574 -396.117,91.434 -396.219,91.295C-396.32,91.181 -396.422,91.066 -396.511,90.952C-396.612,90.825 -396.714,90.711 -396.803,90.597C-396.93,90.457 -397.031,90.305 -397.145,90.165C-397.526,89.721 -397.894,89.264 -398.249,88.807C-398.389,88.642 -398.516,88.49 -398.643,88.325C-398.782,88.16 -398.909,87.983 -399.049,87.818C-399.328,87.462 -399.607,87.107 -399.886,86.752C-399.95,86.663 -400.013,86.587 -400.064,86.51C-400.128,86.434 -400.191,86.358 -400.254,86.269C-400.407,86.079 -400.559,85.889 -400.711,85.698C-400.8,85.571 -400.902,85.444 -400.99,85.318C-401.054,85.254 -401.092,85.191 -401.143,85.127C-401.371,84.823 -401.612,84.518 -401.841,84.214C-402.018,83.998 -402.171,83.795 -402.323,83.579C-402.412,83.452 -402.513,83.325 -402.602,83.198C-402.831,82.919 -403.046,82.627 -403.249,82.348C-403.351,82.208 -403.452,82.056 -403.567,81.917C-403.719,81.726 -403.858,81.536 -403.985,81.345C-404.036,81.282 -404.087,81.231 -404.125,81.168C-404.176,81.104 -404.201,81.054 -404.239,81.003C-404.493,80.673 -404.734,80.33 -404.988,79.988C-405.47,79.328 -405.952,78.655 -406.409,77.983C-406.574,77.779 -406.714,77.564 -406.866,77.348C-406.917,77.272 -406.968,77.196 -407.018,77.12C-407.348,76.65 -407.691,76.168 -408.021,75.698C-408.046,75.66 -408.072,75.609 -408.097,75.584C-408.173,75.47 -408.249,75.368 -408.326,75.254C-408.452,75.064 -408.579,74.873 -408.693,74.696C-408.909,74.391 -409.112,74.099 -409.303,73.807C-409.506,73.528 -409.696,73.236 -409.886,72.957C-410.178,72.526 -410.457,72.082 -410.749,71.65C-410.8,71.561 -410.864,71.472 -410.914,71.384C-411.029,71.219 -411.143,71.054 -411.244,70.889C-411.523,70.47 -411.803,70.038 -412.069,69.607C-412.247,69.353 -412.412,69.087 -412.577,68.82C-412.628,68.744 -412.666,68.681 -412.716,68.604C-412.97,68.198 -413.237,67.792 -413.49,67.386C-413.617,67.17 -413.757,66.955 -413.871,66.752C-414.138,66.333 -414.391,65.927 -414.645,65.521C-414.683,65.457 -414.734,65.381 -414.76,65.318C-414.899,65.102 -415.026,64.886 -415.153,64.683L-415.153,64.67C-415.445,64.188 -415.737,63.719 -416.016,63.236C-416.346,62.703 -416.65,62.183 -416.955,61.65C-417.145,61.345 -417.31,61.041 -417.488,60.749C-417.539,60.673 -417.577,60.584 -417.628,60.508C-417.907,60.026 -418.186,59.543 -418.452,59.061C-418.478,59.023 -418.516,58.972 -418.529,58.934C-418.82,58.414 -419.112,57.906 -419.391,57.386C-419.899,56.498 -420.394,55.597 -420.864,54.708C-420.952,54.556 -421.029,54.404 -421.117,54.252C-421.397,53.731 -421.663,53.224 -421.942,52.703C-422.031,52.526 -422.12,52.348 -422.221,52.17C-422.501,51.637 -422.78,51.104 -423.046,50.584C-423.072,50.533 -423.097,50.482 -423.122,50.432C-423.186,50.317 -423.249,50.203 -423.3,50.076C-423.503,49.696 -423.694,49.315 -423.884,48.934C-423.998,48.706 -424.112,48.477 -424.227,48.249C-424.76,47.208 -425.28,46.142 -425.775,45.102C-425.965,44.721 -426.143,44.328 -426.333,43.934C-426.46,43.693 -426.562,43.439 -426.676,43.211C-426.892,42.754 -427.095,42.31 -427.298,41.866C-429.569,36.993 -431.612,32.12 -433.465,27.272C-433.668,26.764 -433.859,26.244 -434.062,25.736C-434.176,25.419 -434.303,25.102 -434.417,24.784C-434.798,23.757 -435.178,22.729 -435.534,21.701C-435.876,20.749 -436.206,19.823 -436.523,18.883C-436.765,18.185 -437.006,17.488 -437.234,16.79C-458.656,-47.513 -448.211,-104.289 -448.072,-105.063C-448.097,-105.013 -448.122,-104.962 -448.161,-104.911C-448.237,-104.784 -448.338,-104.619 -448.465,-104.429C-448.503,-104.327 -448.567,-104.226 -448.643,-104.124C-448.706,-103.997 -448.795,-103.871 -448.884,-103.731C-448.998,-103.515 -449.138,-103.287 -449.29,-103.046C-449.379,-102.893 -449.468,-102.728 -449.569,-102.576C-449.62,-102.475 -449.671,-102.373 -449.734,-102.284C-449.95,-101.904 -450.191,-101.51 -450.445,-101.079C-450.445,-101.079 -450.445,-101.066 -450.458,-101.066C-450.673,-100.698 -450.902,-100.305 -451.156,-99.886C-451.232,-99.746 -451.308,-99.607 -451.397,-99.454C-451.498,-99.264 -451.612,-99.061 -451.739,-98.858C-452.044,-98.312 -452.374,-97.741 -452.716,-97.145C-452.894,-96.84 -453.059,-96.523 -453.249,-96.206C-453.249,-96.193 -453.249,-96.18 -453.262,-96.168C-453.617,-95.533 -453.998,-94.873 -454.379,-94.175C-454.76,-93.49 -455.166,-92.766 -455.572,-92.018C-455.851,-91.51 -456.13,-91.003 -456.409,-90.482C-456.841,-89.683 -457.272,-88.858 -457.729,-88.02C-458.643,-86.32 -459.595,-84.518 -460.572,-82.601C-460.826,-82.119 -461.067,-81.637 -461.321,-81.142C-462.082,-79.67 -462.856,-78.134 -463.656,-76.548C-465.242,-73.363 -466.892,-69.949 -468.592,-66.332C-468.592,-66.307 -468.592,-66.307 -468.605,-66.294C-469.011,-65.406 -469.43,-64.518 -469.848,-63.617C-470.077,-63.109 -470.318,-62.576 -470.572,-62.056C-471.181,-60.723 -471.79,-59.365 -472.412,-57.982C-472.628,-57.5 -472.843,-57.005 -473.059,-56.51C-474.138,-54.074 -475.216,-51.586 -476.308,-49.01L-476.308,-48.985C-476.435,-48.718 -476.549,-48.426 -476.663,-48.147C-476.765,-47.919 -476.866,-47.678 -476.968,-47.436C-477.069,-47.183 -477.183,-46.929 -477.285,-46.675C-477.399,-46.409 -477.501,-46.142 -477.615,-45.876C-477.628,-45.85 -477.64,-45.799 -477.666,-45.774C-477.919,-45.127 -478.186,-44.48 -478.453,-43.832C-478.782,-43.02 -479.112,-42.208 -479.442,-41.383C-479.861,-40.343 -480.293,-39.277 -480.711,-38.211C-480.914,-37.678 -481.13,-37.145 -481.333,-36.612C-481.854,-35.266 -482.374,-33.909 -482.894,-32.538C-483.008,-32.246 -483.123,-31.942 -483.237,-31.65C-483.541,-30.825 -483.859,-30 -484.163,-29.162C-484.48,-28.325 -484.785,-27.475 -485.09,-26.624C-486.295,-23.299 -487.488,-19.898 -488.643,-16.434C-490.838,-9.911 -492.919,-3.147 -494.861,3.807C-495.242,5.191 -495.623,6.587 -496.003,7.982L-496.003,8.008C-496.371,9.404 -496.739,10.812 -497.107,12.234L-497.107,12.246C-497.831,15.076 -498.516,17.944 -499.189,20.825L-499.189,20.85C-499.836,23.744 -500.47,26.65 -501.067,29.594L-501.067,29.607C-501.219,30.343 -501.359,31.079 -501.511,31.815C-501.942,34.023 -502.348,36.257 -502.742,38.477L-502.742,38.49C-506.257,58.719 -507.958,79.861 -506.663,101.028C-506.663,101.143 -506.651,101.269 -506.651,101.384C-506.587,102.285 -506.524,103.186 -506.46,104.087C-506.257,106.79 -506.016,109.493 -505.711,112.196C-505.673,112.589 -505.623,112.983 -505.572,113.389C-505.47,114.201 -505.369,115.013 -505.267,115.838C-504.95,118.287 -504.595,120.724 -504.189,123.173C-503.909,124.797 -503.617,126.434 -503.313,128.046C-502.996,129.683 -502.666,131.295 -502.31,132.919C-501.955,134.607 -501.562,136.269 -501.143,137.957C-501.041,138.376 -500.94,138.808 -500.813,139.226C-500.445,140.736 -500.039,142.234 -499.62,143.731C-498.503,147.742 -497.247,151.714 -495.826,155.66C-495.166,157.538 -494.468,159.404 -493.732,161.269L-493.732,161.282C-493.173,162.678 -492.602,164.061 -492.019,165.457C-491.574,166.498 -491.117,167.538 -490.648,168.579C-490.178,169.62 -489.709,170.648 -489.227,171.688C-488.744,172.703 -488.237,173.744 -487.729,174.772C-487.222,175.8 -486.701,176.815 -486.168,177.843C-490.343,176.967 -494.772,175.8 -499.328,174.29C-503.884,172.78 -508.554,170.901 -513.211,168.592C-522.171,164.137 -531.079,158.059 -538.973,149.759C-567.26,120.038 -585.166,74.442 -589.303,63.224C-589.912,61.574 -590.217,60.673 -590.217,60.673C-590.217,60.673 -603.351,25.635 -615.483,-33.375C-615.635,-34.175 -615.8,-34.974 -615.965,-35.774L-615.978,-35.863L-615.978,-35.888C-615.826,-37.449 -615.661,-39.023 -615.47,-40.558C-615.432,-40.85 -615.407,-41.142 -615.369,-41.434C-615.217,-42.703 -615.064,-43.972 -614.899,-45.228C-614.785,-46.053 -614.671,-46.853 -614.569,-47.678C-614.493,-48.223 -614.417,-48.756 -614.328,-49.302C-613.859,-52.551 -613.339,-55.774 -612.767,-58.959C-612.691,-59.403 -612.615,-59.86 -612.526,-60.304C-611.714,-64.708 -610.8,-69.048 -609.811,-73.325C-608.148,-80.444 -606.232,-87.411 -604.075,-94.188C-603.91,-94.746 -603.732,-95.292 -603.554,-95.838C-602.552,-98.947 -601.486,-102.043 -600.382,-105.089C-600.191,-105.635 -599.988,-106.18 -599.773,-106.726C-599.582,-107.284 -599.379,-107.83 -599.176,-108.376L-599.163,-108.388C-598.757,-109.48 -598.326,-110.571 -597.907,-111.662L-597.907,-111.675C-597.476,-112.754 -597.044,-113.832 -596.613,-114.911C-596.168,-115.977 -595.737,-117.056 -595.28,-118.122C-594.836,-119.2 -594.392,-120.267 -593.935,-121.332C-592.958,-123.566 -591.955,-125.787 -590.927,-127.995C-590.585,-128.731 -590.242,-129.467 -589.887,-130.203C-589.189,-131.662 -588.491,-133.109 -587.78,-134.556C-587.412,-135.279 -587.044,-136.003 -586.689,-136.726C-586.333,-137.437 -585.965,-138.16 -585.597,-138.871C-584.607,-140.761 -583.605,-142.652 -582.59,-144.518C-581.816,-145.914 -581.054,-147.31 -580.267,-148.706C-579.087,-150.787 -577.882,-152.843 -576.651,-154.886C-576.245,-155.571 -575.838,-156.244 -575.432,-156.916C-575.026,-157.589 -574.607,-158.262 -574.189,-158.934C-573.77,-159.607 -573.351,-160.279 -572.932,-160.939C-572.095,-162.272 -571.245,-163.591 -570.369,-164.911L-569.074,-166.878C-568.643,-167.525 -568.199,-168.185 -567.755,-168.833C-566.6,-170.559 -565.42,-172.284 -564.201,-173.998C-563.009,-175.698 -561.79,-177.373 -560.559,-179.061C-559.633,-180.305 -558.706,-181.548 -557.767,-182.792C-556.828,-184.036 -555.876,-185.267 -554.912,-186.485C-553.491,-188.312 -552.044,-190.127 -550.572,-191.929C-550.09,-192.526 -549.595,-193.122 -549.113,-193.718C-548.123,-194.899 -547.146,-196.079 -546.143,-197.259C-545.153,-198.426 -544.138,-199.594 -543.135,-200.749C-541.257,-202.906 -539.354,-205.025 -537.425,-207.119C-535.496,-209.213 -533.554,-211.282 -531.587,-213.325C-530.014,-214.962 -528.427,-216.574 -526.828,-218.173C-518.859,-226.155 -510.584,-233.706 -502.12,-240.838C-500.445,-242.259 -498.744,-243.668 -497.044,-245.064L-497.031,-245.064C-495.331,-246.46 -493.617,-247.83 -491.904,-249.188C-490.178,-250.546 -488.453,-251.891 -486.727,-253.224C-485.001,-254.543 -483.262,-255.85 -481.536,-257.145C-478.77,-259.201 -476.003,-261.219 -473.224,-263.186C-471.79,-264.213 -470.343,-265.229 -468.897,-266.231C-445.927,-282.158 -422.577,-295.368 -400.673,-306.181C-398.44,-307.285 -396.219,-308.363 -394.011,-309.417C-336.853,-336.764 -291.206,-347.488 -291.206,-347.488C-293.579,-348.934 -295.927,-350.318 -298.262,-351.65C-299.823,-352.526 -301.371,-353.401 -302.907,-354.239C-303.668,-354.658 -304.442,-355.064 -305.216,-355.47C-306.739,-356.282 -308.249,-357.069 -309.759,-357.83C-310.521,-358.224 -311.269,-358.592 -312.018,-358.96C-313.516,-359.709 -314.988,-360.419 -316.473,-361.117C-318.681,-362.158 -320.876,-363.16 -323.033,-364.099C-324.48,-364.734 -325.901,-365.33 -327.323,-365.927C-328.021,-366.219 -328.744,-366.511 -329.442,-366.79C-330.838,-367.361 -332.234,-367.906 -333.605,-368.439C-334.303,-368.693 -334.988,-368.96 -335.673,-369.214C-336.447,-369.493 -337.209,-369.772 -337.97,-370.051C-339.468,-370.584 -340.952,-371.092 -342.412,-371.587C-343.871,-372.082 -345.318,-372.551 -346.739,-373.008C-347.691,-373.3 -348.63,-373.592 -349.569,-373.871C-350.813,-374.252 -352.056,-374.607 -353.262,-374.95C-353.884,-375.127 -354.506,-375.292 -355.115,-375.457C-356.333,-375.787 -357.539,-376.104 -358.732,-376.409C-360.521,-376.866 -362.272,-377.285 -363.985,-377.665C-366.257,-378.186 -368.478,-378.643 -370.622,-379.061C-372.234,-379.366 -373.808,-379.645 -375.331,-379.899C-376.358,-380.064 -377.348,-380.216 -378.325,-380.356C-388.148,-381.828 -396.079,-382.196 -401.65,-382.196C-403.338,-382.196 -404.798,-382.171 -406.041,-382.12C-406.32,-382.107 -406.587,-382.094 -406.841,-382.082C-406.968,-382.069 -407.094,-382.069 -407.209,-382.056C-407.45,-382.056 -407.678,-382.044 -407.907,-382.031C-408.338,-381.993 -408.732,-381.967 -409.074,-381.942C-409.252,-381.929 -409.417,-381.917 -409.556,-381.904C-409.633,-381.904 -409.709,-381.891 -409.772,-381.891C-409.912,-381.866 -410.039,-381.866 -410.14,-381.853C-410.648,-381.802 -410.902,-381.764 -410.902,-381.764C-406.815,-385.292 -402.818,-388.681 -399.023,-391.853C-398.072,-392.64 -397.145,-393.427 -396.219,-394.188L-396.206,-394.188C-395.864,-394.48 -395.521,-394.759 -395.178,-395.038C-394.506,-395.597 -393.833,-396.155 -393.161,-396.714C-392.843,-396.98 -392.501,-397.259 -392.171,-397.526C-390.851,-398.604 -389.569,-399.645 -388.338,-400.66C-387.729,-401.155 -387.133,-401.65 -386.536,-402.132C-385.064,-403.338 -383.655,-404.48 -382.323,-405.533C-381.803,-405.965 -381.282,-406.371 -380.787,-406.777C-380.534,-406.98 -380.292,-407.183 -380.039,-407.374C-378.579,-408.541 -377.247,-409.607 -376.067,-410.546C-376.054,-410.546 -376.054,-410.559 -376.054,-410.559C-375.914,-410.673 -375.787,-410.775 -375.661,-410.876C-375.267,-411.168 -374.912,-411.447 -374.569,-411.726C-374.1,-412.094 -373.668,-412.437 -373.275,-412.754C-372.196,-413.605 -371.358,-414.264 -370.787,-414.696C-370.584,-414.861 -370.419,-414.988 -370.28,-415.089C-370.254,-415.115 -370.242,-415.127 -370.216,-415.127C-370.191,-415.153 -370.178,-415.166 -370.166,-415.178C-370.14,-415.191 -370.127,-415.203 -370.115,-415.216C-370.102,-415.242 -370.089,-415.254 -370.077,-415.254C-370.013,-415.305 -369.962,-415.343 -369.95,-415.356C-370.597,-415.838 -371.244,-416.32 -371.879,-416.802C-372.221,-417.031 -372.551,-417.272 -372.869,-417.5C-373.427,-417.894 -373.973,-418.275 -374.531,-418.655C-374.988,-418.96 -375.432,-419.265 -375.889,-419.569C-377.221,-420.457 -378.592,-421.333 -379.95,-422.196C-381.485,-423.16 -383.059,-424.087 -384.62,-425.026L-386.193,-425.94C-386.815,-426.308 -387.463,-426.676 -388.097,-427.031C-388.732,-427.386 -389.379,-427.742 -390.026,-428.084C-391.308,-428.795 -392.602,-429.48 -393.909,-430.14C-394.772,-430.597 -395.648,-431.041 -396.523,-431.46C-398.262,-432.336 -400.026,-433.173 -401.79,-433.985C-402.678,-434.391 -403.567,-434.797 -404.455,-435.191C-407.996,-436.765 -411.574,-438.237 -415.166,-439.62C-462.653,-457.894 -511.333,-459.493 -512.501,-459.518C-505.813,-463.503 -498.656,-467.145 -491.13,-470.445C-490.051,-470.927 -488.973,-471.384 -487.881,-471.841C-486.79,-472.297 -485.686,-472.754 -484.582,-473.199C-484.024,-473.427 -483.478,-473.643 -482.919,-473.858C-480.686,-474.747 -478.44,-475.597 -476.156,-476.422C-474.442,-477.044 -472.716,-477.653 -470.991,-478.237C-469.823,-478.643 -468.656,-479.023 -467.488,-479.404C-465.737,-479.988 -463.973,-480.546 -462.196,-481.092C-461.003,-481.447 -459.81,-481.815 -458.617,-482.171C-457.425,-482.526 -456.219,-482.869 -455.013,-483.211C-452.298,-483.973 -449.569,-484.721 -446.815,-485.432C-445.889,-485.673 -444.963,-485.902 -444.049,-486.13C-442.196,-486.587 -440.343,-487.031 -438.478,-487.475C-435.686,-488.135 -432.881,-488.757 -430.051,-489.366C-429.112,-489.569 -428.173,-489.76 -427.221,-489.963C-425.889,-490.229 -424.556,-490.508 -423.211,-490.762C-422.653,-490.876 -422.107,-490.99 -421.549,-491.092C-420.762,-491.244 -419.988,-491.384 -419.201,-491.536C-418.541,-491.663 -417.894,-491.79 -417.221,-491.904C-416.587,-492.031 -415.94,-492.145 -415.293,-492.26C-413.82,-492.526 -412.348,-492.78 -410.876,-493.034C-410.521,-493.097 -410.166,-493.161 -409.81,-493.224C-408.846,-493.376 -407.894,-493.541 -406.93,-493.694C-406.65,-493.732 -406.384,-493.782 -406.105,-493.833C-403.44,-494.265 -400.762,-494.671 -398.084,-495.064C-396.841,-495.242 -395.597,-495.432 -394.353,-495.597C-393.44,-495.724 -392.526,-495.851 -391.612,-495.978C-390.419,-496.143 -389.227,-496.295 -388.046,-496.447C-385.825,-496.739 -383.605,-497.018 -381.396,-497.272L-381.384,-497.272C-343.871,-496.587 -279.391,-493.3 -229.518,-479.76C-182.691,-466.549 -140.038,-450.292 -102.703,-431.447L-102.678,-431.422L-102.64,-431.396C-101.447,-430.813 -100.267,-430.178 -98.998,-429.531C-98.16,-429.099 -97.335,-428.655 -96.498,-428.237C-83.236,-420.648 -40.964,-393.072 -6.002,-333.122C-3.541,-325.546 -1.561,-318.807 0,-313.046" style="fill:white;fill-rule:nonzero;"/>
                        </g>
                    </g>
                </g>
            </g>
        </g>
        <g id="Livello-1" serif:id="Livello 1">
        </g>
    </g>
</svg>
